<svg width="100" height="100" viewBox="0 0 100 100" fill="none" xmlns="http://www.w3.org/2000/svg">
<g clip-path="url(#clip0_2_8)">
<rect width="100" height="100" rx="22" fill="#42CE9F"/>
<path fill-rule="evenodd" clip-rule="evenodd" d="M39.875 25.875C40.625 25.875 40.875 25.875 42.125 25.875C42.125 28.5 42.125 30.75 42.125 33.625C49.1502 34.3397 55.4002 36.8815 60.875 41.25C67.736 48.49 68.4443 56.2817 63 64.625C57.8597 70.3815 51.4012 73.3398 43.625 73.5C41.0417 73.6667 38.4583 73.6667 35.875 73.5C33.742 72.6917 32.617 71.15 32.5 68.875C32.5 54.5 32.375 40.25 32.375 25.875C34.875 25.875 37.375 25.875 39.875 25.875Z" fill="white"/>
<path fill-rule="evenodd" clip-rule="evenodd" d="M41.75 43.25C46.9833 43.721 52.2333 46.0125 55.75 49.875C57.4823 52.481 57.5655 55.1477 56 57.875C54.0268 60.7627 51.3185 62.5543 47.875 63.25C45.9863 63.72 43.6945 63.9282 41.75 63.875C41.75 57 41.75 50.25 41.75 43.25Z" fill="#42CE9F"/>
</g>
<defs>
<clipPath id="clip0_2_8">
<rect width="100" height="100" rx="22.5" fill="white"/>
</clipPath>
</defs>
</svg>
