<svg width="100" height="100" viewBox="0 0 100 100" fill="none" xmlns="http://www.w3.org/2000/svg">
<path d="M85.8465 19.6523L79.3922 91.9568L50.3799 100L21.4475 91.9682L15 19.6523H85.8465Z" fill="#E44D26"/>
<path d="M50.4232 93.8522L73.8666 87.3527L79.3822 25.5652H50.4232V93.8522Z" fill="#F16529"/>
<path d="M37.8764 43.3039H50.4232V34.4346H28.1834L28.3957 36.8141L30.5756 61.2553H50.4232V52.3861H38.6869L37.8764 43.3039Z" fill="#EBEBEB"/>
<path d="M39.8752 65.69H30.9719L32.2145 79.616L50.3824 84.6596L50.4232 84.6482V75.4205L50.3844 75.4309L40.5066 72.7637L39.8752 65.69Z" fill="#EBEBEB"/>
<path d="M21.5916 0H26.0988V4.45312H30.2219V0H34.7293V13.4852H30.2221V8.96953H26.099V13.4852H21.5918L21.5916 0Z" fill="black"/>
<path d="M40.6564 4.47188H36.6885V0H49.1338V4.47188H45.1641V13.4852H40.6566L40.6564 4.47188Z" fill="black"/>
<path d="M51.109 0H55.8088L58.6998 4.73828L61.5879 0H66.2894V13.4852H61.8008V6.80117L58.6998 11.5959H58.6223L55.5191 6.80117V13.4852H51.109V0Z" fill="black"/>
<path d="M68.5326 0H73.0412V9.02773H79.3797V13.4852H68.5326V0Z" fill="black"/>
<path d="M50.3926 61.2553H61.3141L60.2846 72.758L50.3926 75.4279V84.6553L68.575 79.616L68.7084 78.1176L70.7926 54.7678L71.009 52.3861H50.3926V61.2553Z" fill="white"/>
<path d="M50.3926 43.2822V43.3039H71.816L71.9939 41.3104L72.398 36.8141L72.6102 34.4346H50.3926V43.2822Z" fill="white"/>
</svg>
