<svg width="100" height="100" viewBox="0 0 100 100" fill="none" xmlns="http://www.w3.org/2000/svg">
<g clip-path="url(#clip0_111_7)">
<path fill-rule="evenodd" clip-rule="evenodd" d="M49.5849 0.000701506C62.4634 0.000701506 75.3427 0.000701506 88.2213 0C89.8373 0 91.4386 0.140301 92.9893 0.613117C96.3514 1.63802 98.1319 4.04909 98.8296 7.37213C99.1065 8.68956 99.1852 10.0329 99.188 11.3756C99.2084 20.3956 99.2238 29.4156 99.2245 38.4355C99.2252 54.8634 99.2273 71.2913 99.1936 87.7192C99.1887 90.0187 99.0664 92.3435 97.931 94.4382C96.6718 96.7616 94.9476 98.6002 92.3303 99.4091C91.8574 99.555 91.3634 99.7212 90.8786 99.7212C89.7614 99.7219 88.6745 99.999 87.5608 99.999C62.3412 99.9969 37.1215 100.012 11.9019 99.9717C9.85092 99.9682 7.76621 99.8187 5.81781 98.9839C5.42995 98.8177 5.03859 98.6781 4.69781 98.4185C2.21681 96.528 0.532596 94.1702 0.171443 90.9798C0.0414554 89.8293 0 88.6851 0 87.5347C0.0042158 61.9718 0.0063237 36.4089 0.0196737 10.846C0.0203764 9.36301 0.0358343 7.85477 0.491843 6.43562C1.7067 2.6531 4.36476 0.588564 8.30513 0.169063C9.22066 0.0715536 10.1446 0.00841808 11.0644 0.00771657C23.9043 -0.00280603 36.7449 0.000701506 49.5849 0.000701506Z" fill="#FB7A24"/>
<path fill-rule="evenodd" clip-rule="evenodd" d="M49.9129 63.6098C49.6309 65.3362 49.4331 66.8964 48.8129 68.3345C45.9094 75.0724 40.9617 79.1784 33.5439 79.9956C24.7758 80.9616 16.6776 75.5502 14.2427 67.1454C13.3602 64.0995 13.4486 60.9946 13.7685 57.8946C14.1101 54.5821 15.0859 51.4408 16.6096 48.4776C16.8277 48.0539 16.8235 47.734 16.5506 47.3236C14.2111 43.8049 13.3034 39.9178 13.6331 35.7221C13.8092 33.4794 14.3535 31.3342 15.3707 29.3251C18.3507 23.4395 24.8937 18.4447 33.6569 19.2739C41.3622 20.0028 48.4994 26.6495 49.6133 34.1248C49.6695 34.5001 49.7747 34.8684 49.8982 35.4219C50.0827 34.4194 50.2159 33.5924 50.3885 32.773C51.8238 25.9817 58.4713 18.8755 67.8939 18.7878C77.4442 18.6994 84.5168 26.1894 85.8511 33.1462C86.4151 36.0862 86.3169 39.0234 85.8518 41.9592C85.3867 44.8922 84.5252 47.7116 83.266 50.399C82.9882 50.9918 83.017 51.4183 83.3726 51.969C85.4295 55.1567 86.3372 58.6558 86.2208 62.4558C85.9773 70.385 80.3695 77.4954 72.6543 79.3551C61.8827 81.9507 53.626 75.5088 50.8473 67.715C50.3941 66.4467 50.1795 65.1223 49.9129 63.6098ZM69.4821 49.6793C69.5972 49.231 69.9444 48.9624 70.1941 48.6306C72.8949 45.0416 74.3155 41.0325 73.9984 36.5183C73.7676 33.2234 71.0577 30.9028 67.7775 31.0255C64.4951 31.1483 62.0216 33.68 61.9753 36.9645C61.9718 37.2332 61.9879 37.5026 61.9711 37.7698C61.7452 41.2703 59.814 43.1876 56.8873 43.4015C56.3527 43.4408 55.8168 43.4885 55.2815 43.4899C51.4829 43.4983 47.6849 43.4969 43.8862 43.4934C42.2272 43.492 40.5822 43.6723 39.0024 44.1598C31.6274 46.4355 27.3272 51.4787 25.9031 58.9953C25.6211 60.4825 25.3672 62.0258 25.8547 63.5537C26.5541 65.7445 27.8582 67.3741 30.1669 67.9192C32.5597 68.4839 34.6439 67.8588 36.2995 65.9795C37.37 64.7645 37.7074 63.3208 37.7873 61.7361C37.9943 57.6603 40.2139 55.6232 43.915 55.654C49.593 55.701 55.2717 55.6639 60.9504 55.6681C61.9585 55.6688 61.9676 55.6821 61.9725 56.6789C61.9823 58.5204 61.9255 60.3639 61.9963 62.2033C62.1121 65.2057 64.754 67.7017 67.8167 67.7894C70.9749 67.8799 73.7901 65.5439 73.9956 62.4944C74.1731 59.8554 74.1619 57.1995 73.9886 54.5583C73.8546 52.5134 72.7483 51.0564 70.8739 50.2103C70.4242 50.0083 69.9514 49.8568 69.4821 49.6793ZM33.8884 43.4843C35.1097 43.4843 36.1065 43.4731 37.1027 43.4892C37.5965 43.4969 37.7796 43.2844 37.7754 42.8003C37.7593 40.8845 37.8582 38.9624 37.7361 37.0536C37.5748 34.5352 36.2356 32.7148 33.8912 31.7965C31.4871 30.8551 29.2872 31.3924 27.4268 33.1679C25.558 34.9519 25.309 37.1336 25.9628 39.5215C26.5632 41.7158 27.9824 42.9624 30.2139 43.3391C31.5103 43.5573 32.8137 43.4527 33.8884 43.4843Z" fill="white"/>
</g>
<defs>
<clipPath id="clip0_111_7">
<rect width="100" height="100" fill="white"/>
</clipPath>
</defs>
</svg>
