<svg width="100" height="100" viewBox="0 0 100 100" fill="none" xmlns="http://www.w3.org/2000/svg">
<path fill-rule="evenodd" clip-rule="evenodd" d="M0 57.8292C0 66.4449 22.3804 73.4379 49.9921 73.4379V89.0403C22.3804 89.0403 0 82.0535 0 73.4379V57.8292ZM100 57.8292V73.4348C100 77.1132 95.9104 80.4879 89.1008 83.1574L49.9889 73.4348V57.8292L89.1008 67.5487C95.9104 64.8824 100.003 61.5076 100 57.8292ZM49.9921 11C77.607 11 100 17.9994 100 26.6087V42.2269C100 45.8926 95.9104 49.28 89.104 51.9368L49.9921 42.2269V57.8292C22.3804 57.8292 0 50.8393 0 42.2269V26.6087C0 17.9994 22.3804 11 49.9921 11Z" fill="#D33C44"/>
</svg>
