<svg width="100" height="100" viewBox="0 0 100 100" fill="none" xmlns="http://www.w3.org/2000/svg">
<path d="M59.7593 43.1758C57.573 43.1758 55.9446 44.2493 55.9446 46.8329C55.9446 48.7795 57.0177 50.131 59.6414 50.131C61.8652 50.131 63.3757 48.8205 63.3757 46.7525C63.3757 44.4087 62.0241 43.1758 59.7593 43.1758ZM55.388 61.4187C54.8707 62.0534 54.3551 62.7283 54.3551 63.5242C54.3551 65.1128 56.3807 65.5909 59.1634 65.5909C61.4684 65.5909 64.6081 65.4292 64.6081 63.2863C64.6081 62.0123 63.0976 61.9338 61.1889 61.8142L55.388 61.4187ZM67.151 43.2959C67.8652 44.21 68.6214 45.4822 68.6214 47.31C68.6214 51.721 65.1638 54.3037 60.1579 54.3037C58.8848 54.3037 57.7323 54.1452 57.0177 53.9466L55.7058 56.0525L59.5999 56.2904C66.4757 56.7288 70.5277 56.9279 70.5277 62.211C70.5277 66.7822 66.515 69.3639 59.5999 69.3639C52.4072 69.3639 49.6652 67.5361 49.6652 64.3968C49.6652 62.6082 50.4602 61.6566 51.851 60.3429C50.5392 59.7886 50.1026 58.7954 50.1026 57.7219C50.1026 56.847 50.5392 56.0525 51.2556 55.2968C51.9707 54.5429 52.7652 53.7868 53.7191 52.9128C51.772 51.9589 50.3013 49.8922 50.3013 46.9511C50.3013 42.3817 53.3218 39.2434 59.4008 39.2434C61.1099 39.2434 62.1437 39.4005 63.0579 39.6406H70.8077V43.0174L67.151 43.2959Z" fill="#2F2707"/>
<path d="M77.799 36.0744C75.5332 36.0744 74.2223 34.7621 74.2223 32.4959C74.2223 30.2329 75.5332 29 77.799 29C80.104 29 81.4154 30.2329 81.4154 32.4959C81.4154 34.7621 80.104 36.0744 77.799 36.0744ZM72.6716 59.9562V56.8183L74.699 56.5411C75.2556 56.4607 75.3346 56.342 75.3346 55.7448V44.0612C75.3346 43.6251 75.2159 43.3457 74.8172 43.2274L72.6716 42.4717L73.1086 39.2539H81.3355V55.7448C81.3355 56.3817 81.3739 56.4607 81.9716 56.5411L83.9985 56.8183V59.9562H72.6716Z" fill="#2F2707"/>
<path d="M99.7136 58.4155C98.004 59.2493 95.5008 60.0046 93.2346 60.0046C88.5058 60.0046 86.7181 58.0991 86.7181 53.6064V43.195C86.7181 42.9571 86.7181 42.7977 86.399 42.7977H83.6177V39.2607C87.1158 38.8626 88.5058 37.1137 88.9428 32.7822H92.7186V38.4269C92.7186 38.7041 92.7186 38.8242 93.0369 38.8242H98.6396V42.7977H92.7186V52.295C92.7186 54.6397 93.2757 55.553 95.4204 55.553C96.5346 55.553 97.6857 55.2753 98.6396 54.9178L99.7136 58.4155Z" fill="#2F2707"/>
<path d="M40.8314 47.9868L22.6611 29.8178C21.6154 28.7712 19.9182 28.7712 18.8711 29.8178L15.0981 33.5909L19.8844 38.3772C20.9967 38.0014 22.272 38.2534 23.1588 39.1402C24.0497 40.0324 24.2999 41.3187 23.915 42.4347L28.5277 47.0475C29.6437 46.663 30.9314 46.9119 31.8227 47.8046C33.0684 49.0498 33.0684 51.068 31.8227 52.3142C30.5766 53.5603 28.5583 53.5603 27.3118 52.3142C26.3748 51.3763 26.1433 50 26.6177 48.8457L22.3159 44.5438L22.3154 55.8644C22.6191 56.0151 22.9058 56.2155 23.1588 56.4676C24.4045 57.7128 24.4045 59.731 23.1588 60.9781C21.9127 62.2237 19.8935 62.2237 18.6492 60.9781C17.4035 59.731 17.4035 57.7128 18.6492 56.4676C18.957 56.1603 19.3131 55.9279 19.693 55.7717V44.3457C19.3131 44.1904 18.9574 43.9594 18.6492 43.6498C17.7054 42.7073 17.4784 41.3224 17.962 40.1635L13.2442 35.4447L0.785274 47.9027C-0.261758 48.9502 -0.261758 50.6475 0.785274 51.6941L18.9556 69.8635C20.0017 70.91 21.6985 70.91 22.746 69.8635L40.8314 51.7785C41.878 50.7315 41.878 49.0333 40.8314 47.9868Z" fill="#DE4C36"/>
</svg>
