<svg width="100" height="100" viewBox="0 0 100 100" fill="none" xmlns="http://www.w3.org/2000/svg">
<path d="M14 80.6261L14.6047 79.7794L43.2101 25.502L43.2705 24.9274L30.6606 1.24163C29.6042 -0.742479 26.63 -0.240828 26.2833 1.98023L14 80.6261Z" fill="#FFC24A"/>
<path d="M14.3569 79.9805L14.8143 79.0886L43.12 25.3799L30.5417 1.59778C29.4963 -0.365544 26.8416 0.134946 26.4986 2.33273L14.3569 79.9805Z" fill="#FFA712"/>
<g filter="url(#filter0_i_2_260)">
<path d="M14.3569 79.9805L14.8143 79.0886L43.12 25.3799L30.5417 1.59778C29.4963 -0.365544 26.8416 0.134946 26.4986 2.33273L14.3569 79.9805Z" fill="black"/>
</g>
<path d="M52.463 42.8435L61.8519 33.2278L52.4602 15.2989C51.5687 13.6019 49.0794 13.597 48.1973 15.2989L43.1798 24.8684V25.6834L52.463 42.8435Z" fill="#F4BD62"/>
<path d="M52.2955 42.4428L61.4233 33.0945L52.2955 15.7136C51.4287 14.0637 49.323 13.8908 48.4655 15.5455L43.4213 25.2632L43.2705 25.76L52.2955 42.4428Z" fill="#FFA50E"/>
<g filter="url(#filter1_i_2_260)">
<path d="M52.2955 42.4428L61.4233 33.0945L52.2955 15.7136C51.4287 14.0637 49.323 13.8908 48.4655 15.5455L43.4213 25.2632L43.2705 25.76L52.2955 42.4428Z" fill="black"/>
</g>
<path d="M14 80.6261L14.2741 80.3505L15.27 79.9457L51.8733 43.4785L52.337 42.2161L43.206 24.8162L14 80.6261Z" fill="#F6820C"/>
<path d="M53.6356 99.0175L86.7624 80.5424L77.3025 22.2819C77.0066 20.459 74.7703 19.7384 73.4656 21.0454L14.0001 80.6262L46.9369 99.0158C49.0184 100.178 51.5535 100.179 53.6356 99.0175Z" fill="#FDE068"/>
<path d="M86.4656 80.3874L77.0775 22.5692C76.7838 20.7602 74.9242 20.0117 73.6294 21.3088L14.3674 80.5131L46.9424 98.7206C49.0081 99.8741 51.524 99.8746 53.5903 98.7223L86.4656 80.3874Z" fill="#FCCA3F"/>
<path d="M53.6356 98.4732C51.5535 99.6343 49.0184 99.6338 46.9369 98.4715L14.2653 80.346L14.0001 80.6262L46.9369 99.0158C49.0184 100.178 51.5535 100.179 53.6356 99.0175L86.7624 80.5424L86.6813 80.0432L53.6356 98.4732Z" fill="#EEAB37"/>
<defs>
<filter id="filter0_i_2_260" x="14.3569" y="0.370758" width="28.7631" height="79.6098" filterUnits="userSpaceOnUse" color-interpolation-filters="sRGB">
<feFlood flood-opacity="0" result="BackgroundImageFix"/>
<feBlend mode="normal" in="SourceGraphic" in2="BackgroundImageFix" result="shape"/>
<feColorMatrix in="SourceAlpha" type="matrix" values="0 0 0 0 0 0 0 0 0 0 0 0 0 0 0 0 0 0 127 0" result="hardAlpha"/>
<feOffset/>
<feGaussianBlur stdDeviation="17.5"/>
<feComposite in2="hardAlpha" operator="arithmetic" k2="-1" k3="1"/>
<feColorMatrix type="matrix" values="0 0 0 0 0 0 0 0 0 0 0 0 0 0 0 0 0 0 0.06 0"/>
<feBlend mode="normal" in2="shape" result="effect1_innerShadow_2_260"/>
</filter>
<filter id="filter1_i_2_260" x="43.2705" y="7.38704" width="19.1528" height="35.0558" filterUnits="userSpaceOnUse" color-interpolation-filters="sRGB">
<feFlood flood-opacity="0" result="BackgroundImageFix"/>
<feBlend mode="normal" in="SourceGraphic" in2="BackgroundImageFix" result="shape"/>
<feColorMatrix in="SourceAlpha" type="matrix" values="0 0 0 0 0 0 0 0 0 0 0 0 0 0 0 0 0 0 127 0" result="hardAlpha"/>
<feOffset dx="1" dy="-9"/>
<feGaussianBlur stdDeviation="3.5"/>
<feComposite in2="hardAlpha" operator="arithmetic" k2="-1" k3="1"/>
<feColorMatrix type="matrix" values="0 0 0 0 0 0 0 0 0 0 0 0 0 0 0 0 0 0 0.09 0"/>
<feBlend mode="normal" in2="shape" result="effect1_innerShadow_2_260"/>
</filter>
</defs>
</svg>
