<svg width="100" height="100" viewBox="0 0 100 100" fill="none" xmlns="http://www.w3.org/2000/svg">
<path d="M21.9204 15.8832C16.202 24.2535 16.9143 35.1425 21.271 44.0259L21.5914 44.6591L21.8079 45.0596C21.8479 45.1375 21.8944 45.2144 21.9356 45.2902C22.0113 45.4309 22.0871 45.5662 22.1521 45.7047L22.5688 46.4332L22.8069 46.8337L23.2908 47.6044L23.5072 47.9291C23.7237 48.2755 23.9684 48.6197 24.2086 48.9595C24.2141 48.9682 24.2216 48.9779 24.2281 48.9866C24.266 49.0407 24.3082 49.0948 24.3364 49.149C24.5442 49.4412 24.7693 49.7291 24.9858 50.0149L25.2261 50.3266L25.816 51.0648L26.0412 51.3398C26.3095 51.6637 26.5837 51.9828 26.8638 52.2966L26.8811 52.3139C26.8919 52.328 26.9028 52.3356 26.9136 52.3497C27.1849 52.6557 27.4636 52.9553 27.7492 53.2481L28.0177 53.523L28.6855 54.1898L28.9583 54.4539C29.2584 54.7415 29.5633 55.024 29.8729 55.3014L30.0461 55.4529L30.8763 56.1673L31.2205 56.4466L31.9133 56.9878L32.2834 57.2746L33.342 58.0486C33.3691 58.067 33.3929 58.0864 33.42 58.1048C33.6689 58.278 33.9211 58.4458 34.1744 58.6136L34.5013 58.8355L35.6833 59.5715L36.0102 59.7588L36.8978 60.2653C37.0601 60.3541 37.2257 60.4385 37.3881 60.523L38.0224 60.8477L38.1685 60.9191L38.4283 61.0468L39.4349 61.5209L39.6482 61.6292C40.0363 61.8018 40.4275 61.9674 40.8215 62.126L41.1073 62.2408L42.2146 62.6586L42.3531 62.7084C42.762 62.8526 43.1734 62.9897 43.5871 63.1197L43.8847 63.2106C44.3177 63.3405 44.7236 63.4953 45.1587 63.5786C72.8122 68.7266 80.847 46.6648 80.847 46.6648C74.1003 55.6164 62.1256 57.976 50.7797 55.349C50.35 55.2408 49.9333 55.1141 49.5133 54.9875L49.1972 54.8793C48.7881 54.7515 48.3811 54.6162 47.9784 54.4755L47.8107 54.4138C47.4504 54.284 47.092 54.1486 46.7358 54.0079L46.4327 53.8867C46.043 53.73 45.6561 53.5662 45.2724 53.3953L45.0408 53.2914L44.0623 52.8259L43.7808 52.6874C43.5266 52.5596 43.274 52.4286 43.0231 52.2945L42.5177 52.0239C42.2122 51.8565 41.9098 51.6836 41.6106 51.5054L41.3043 51.3322C40.9059 51.0941 40.5119 50.8451 40.1223 50.5962C40.014 50.5258 39.9101 50.4511 39.803 50.3797L38.9619 49.8103L38.6913 49.6155L37.8958 49.031L37.5429 48.7604L36.8252 48.1889L36.5049 47.9291L35.6119 47.1714C35.5816 47.1443 35.5469 47.1173 35.5036 47.0881C35.1854 46.8034 34.8726 46.5111 34.5641 46.2178L34.3 45.958L33.6246 45.2848L33.3604 45.0142C33.0791 44.7218 32.8031 44.4245 32.5324 44.1222C32.5194 44.1071 32.5043 44.093 32.4913 44.0789C32.2052 43.7595 31.9251 43.4348 31.6513 43.1048L31.4316 42.8385L30.8254 42.0776L30.6035 41.7961L29.9054 40.849C23.6057 32.0977 21.3543 20.0288 26.3767 10.1161M39.672 8.83017C35.5372 14.8917 35.7612 23.0033 38.9868 29.4133C39.5264 30.4897 40.1375 31.5286 40.8161 32.5231C41.4352 33.4269 42.1226 34.5039 42.9452 35.2291C43.2429 35.5539 43.5546 35.8786 43.8728 36.2098C43.9529 36.2931 44.0352 36.3722 44.1175 36.4555C44.4263 36.7621 44.7425 37.0613 45.0657 37.3528C45.0786 37.3637 45.0906 37.3766 45.1046 37.3875C45.4685 37.7109 45.8406 38.0249 46.2206 38.3292L46.4717 38.5283C46.8501 38.8257 47.2363 39.113 47.6299 39.3899C47.6405 39.3986 47.6513 39.4069 47.6624 39.4148C47.8356 39.5371 48.0142 39.653 48.1906 39.7699C48.275 39.8261 48.3551 39.8857 48.4395 39.9387C48.7218 40.1235 49.008 40.3021 49.2979 40.4745L49.4191 40.5459L50.1768 40.9789C50.2656 41.0298 50.3565 41.0742 50.4474 41.1218L50.9886 41.4011C51.0157 41.4151 51.0427 41.426 51.0687 41.4389C51.4335 41.623 51.8004 41.7961 52.176 41.9639C52.2561 41.9996 52.3384 42.0321 52.4207 42.0667C52.7205 42.1966 53.0236 42.3222 53.3299 42.4423L53.7195 42.5874C53.9958 42.6902 54.2737 42.7887 54.553 42.8829L54.9297 43.0052C55.3269 43.1318 55.7198 43.2899 56.1344 43.3602C77.485 46.9625 82.4154 30.2197 82.4154 30.2197C77.9721 36.7359 69.368 39.8467 60.1848 37.4199C59.7786 37.312 59.3754 37.1929 58.9757 37.0627C58.8534 37.0249 58.7333 36.9848 58.6121 36.9545C58.3285 36.8609 58.0466 36.762 57.7667 36.6579L57.3846 36.5129C57.0783 36.4046 56.7752 36.2693 56.4754 36.1394C56.3931 36.1037 56.3108 36.0713 56.2297 36.0334C55.853 35.8685 55.4812 35.6928 55.1148 35.5062C54.9264 35.4121 54.7413 35.3136 54.5563 35.2161L54.2337 35.0473C53.9956 34.9164 53.7599 34.7811 53.5269 34.6414L53.358 34.5331C53.0698 34.3609 52.7847 34.1833 52.5029 34.0006C52.4163 33.9443 52.3319 33.8924 52.2453 33.8252L51.6911 33.4518C51.2996 33.1747 50.9149 32.8881 50.5373 32.5924L50.2775 32.3846C46.2585 29.1525 43.0719 24.7362 41.5576 19.7279C39.9697 14.5323 40.3128 8.70353 43.0729 3.97231M54.5985 3.56099C52.1609 7.21521 51.9217 11.7527 53.6243 15.7879C55.4081 20.071 59.0634 23.4319 63.3292 25.0241C63.5046 25.0913 63.681 25.1508 63.8704 25.2114L64.1042 25.2872C64.3553 25.3673 64.6054 25.4604 64.8641 25.5102C76.6537 27.8298 79.8512 19.3491 80.7019 18.101C77.9006 22.2088 73.1932 23.1949 67.4175 21.7672C66.9629 21.6535 66.4595 21.4857 66.0103 21.3277C65.4451 21.1232 64.8912 20.8887 64.351 20.6252C63.3231 20.1212 62.3484 19.5152 61.4415 18.8165C56.2621 14.8224 53.0506 7.20439 56.4234 1" fill="#0868AC"/>
<path d="M52.0332 74.6474H48.3746C48.1711 74.6474 47.9698 74.8097 47.9265 75.0089L45.3287 87.0312C45.2854 87.2293 45.0841 87.3917 44.8817 87.3917H42.2915C39.7283 87.3917 40.0249 85.6198 40.5596 83.1919L40.5758 83.1183L40.8865 81.4622L41.0207 80.7803L42.2027 75.0089C42.2438 74.8097 42.1107 74.6463 41.9072 74.6463H38.1512C38.0477 74.6498 37.9481 74.687 37.8677 74.7523C37.7872 74.8175 37.7302 74.9072 37.7053 75.0078L36.0135 83.0328C35.0826 87.2802 35.3294 91.3306 40.3864 91.4572L40.5325 91.4605H48.4688C48.6723 91.4605 48.8725 91.2981 48.9158 91.0989L52.3384 75.0078C52.3817 74.8086 52.2486 74.6463 52.0462 74.6463L52.0332 74.6474ZM66.6317 87.4339C66.8352 87.4339 66.9564 87.5963 66.9272 87.7954L66.5721 89.5327" fill="#131B28"/>
<path d="M56.8434 85.1976C56.8401 85.0071 57.0566 84.6802 57.2601 84.6802L56.8033 84.6727C56.5868 86.7444 56.8434 85.1976 56.8434 85.1976ZM66.6316 87.4339C66.8351 87.4339 66.9563 87.5963 66.9271 87.7954L66.5136 89.8152" fill="#131B28"/>
<path d="M59.8243 91.6683H59.6533H59.846H59.8243ZM6.03059 85.2409L6.59885 82.7211L5.9494 85.6003L5.87364 85.9618L6.03167 85.2388L6.03059 85.2409ZM12.8346 74.6062H8.81563C8.71179 74.6103 8.61197 74.6475 8.53076 74.7123C8.44955 74.7772 8.39121 74.8663 8.36427 74.9666L7.60225 78.3221C7.58944 78.3656 7.58731 78.4114 7.59602 78.4559C7.60473 78.5003 7.62404 78.542 7.6523 78.5774C7.68056 78.6127 7.71694 78.6408 7.75835 78.6591C7.79976 78.6774 7.84498 78.6855 7.89017 78.6826H11.9406C12.1441 78.6826 12.3454 78.5202 12.3887 78.3221L13.1247 74.9591C13.168 74.761 13.0381 74.5986 12.8325 74.5986L12.8346 74.6062ZM0.28514 98.271L3.59949 98.297C2.62099 98.297 1.00494 98.2786 0.284058 98.2699L0.28514 98.271Z" fill="#131B28"/>
<path d="M11.67 79.8397H7.6185C7.51466 79.8438 7.41484 79.8809 7.33363 79.9458C7.25242 80.0106 7.19408 80.0998 7.16714 80.2001L6.0306 85.2398L5.87257 85.9629L4.79016 91.1076C4.73653 91.3476 4.67152 91.5849 4.59533 91.8187C4.59533 91.8187 3.83764 94.0702 2.56688 94.0453L1.30587 94.0215C1.20244 94.0244 1.10262 94.0601 1.02088 94.1236C0.939143 94.187 0.879732 94.2748 0.85126 94.3743L0.0123904 97.9062C-0.000862914 97.9494 -0.00353075 97.9951 0.00461224 98.0396C0.0127552 98.084 0.0314698 98.1258 0.0591752 98.1615C0.0868806 98.1971 0.122763 98.2256 0.163791 98.2445C0.20482 98.2634 0.249789 98.2721 0.2949 98.2699L3.61033 98.297C6.78829 98.297 8.46279 96.5359 9.53762 91.4702L11.973 80.2131C12.0163 80.015 11.8843 79.8527 11.6808 79.8527L11.67 79.8397ZM69.2132 91.4626C69.0097 91.4626 68.8885 91.3003 68.9209 91.1011L71.9679 76.8284" fill="#131B28"/>
<path d="M68.9653 91.2819C68.9404 91.1823 68.9545 90.9388 68.9978 90.7407L70.4439 83.9648L68.9198 91.1011C68.8765 91.3003 69.0086 91.4627 69.2121 91.4627H69.5823C69.3788 91.4627 68.9891 91.3815 68.9653 91.2819ZM73.2084 91.3815C73.098 91.4248 72.8403 91.4627 72.6368 91.4627H73.007C73.1103 91.4586 73.2095 91.421 73.2896 91.3556C73.3696 91.2902 73.4262 91.2005 73.4508 91.1L73.5244 90.7385C73.4844 90.9377 73.3079 91.3371 73.1997 91.3815H73.2084ZM86.0869 77.7842L86.2547 78.477C86.3012 78.675 86.1724 78.8363 85.97 78.8374" fill="#131B28"/>
<path d="M74.6079 85.3654L74.7573 84.6467L75.3385 81.9244L74.6804 85.0071L74.6079 85.3654ZM72.0177 76.5935L71.8911 77.1889L70.4449 83.9648L71.969 76.8284L72.0177 76.5946V76.5935Z" fill="#131B28"/>
<path d="M86.2558 78.4769L86.088 77.7842L85.8391 76.7018C85.51 75.4245 84.5445 74.6852 82.4468 74.6852L72.7917 74.6787C72.6881 74.6823 72.5886 74.7195 72.5081 74.7848C72.4276 74.85 72.3706 74.9397 72.3457 75.0403L72.1963 75.7471L71.9799 76.8154L69.0097 90.7277C68.9664 90.9268 68.9523 91.1606 68.9772 91.2689C69.0021 91.3771 69.3918 91.4496 69.5942 91.4496H72.6466C72.8501 91.4496 73.1066 91.4128 73.2181 91.3685C73.3296 91.3241 73.4931 90.9355 73.5429 90.7255L74.701 84.9952L75.9404 79.1892C75.9837 78.9911 76.1839 78.8298 76.3864 78.8287L85.9906 78.8244C86.193 78.8244 86.3218 78.662 86.2753 78.4639L86.2558 78.4769ZM98.6202 72.2065L97.8809 72.2098H94.8069C94.6943 72.2165 94.5845 72.2472 94.4848 72.2998C94.3851 72.3525 94.2978 72.4258 94.2288 72.515L87.4313 82.4732C87.3166 82.641 87.1856 82.6161 87.139 82.4191L86.639 80.225C86.612 80.1247 86.5537 80.0355 86.4725 79.9707C86.3913 79.9058 86.2915 79.8686 86.1876 79.8646H81.8179C81.6144 79.8646 81.4932 80.0237 81.5495 80.2196L83.4978 87.0799C83.5541 87.2748 83.5573 87.5963 83.5086 87.7943L82.6427 91.1141C82.6279 91.1567 82.6241 91.2022 82.6314 91.2467C82.6387 91.2912 82.657 91.3331 82.6846 91.3687C82.7123 91.4043 82.7484 91.4324 82.7896 91.4505C82.8309 91.4686 82.876 91.4761 82.9209 91.4724H87.2505C87.454 91.4724 87.6618 91.31 87.7116 91.1152L88.5776 87.7954C88.6455 87.5617 88.7515 87.3408 88.8915 87.1416L99.9386 72.4934C100.061 72.331 99.9949 72.1989 99.7914 72.2011L98.6332 72.2087L98.6202 72.2065ZM63.9007 80.7976C63.8747 81.0141 63.6713 81.1765 63.4678 81.1765H57.9258C57.7342 81.1765 57.6368 81.0466 57.666 80.8842L57.6704 80.855L57.6953 80.7608C58.2365 79.3537 59.3026 78.4304 61.3278 78.4304C63.6085 78.4304 64.0533 79.5453 63.8986 80.7976H63.9007ZM62.2749 74.4027C55.1635 74.4027 53.4782 78.7194 52.5332 83.0761C51.5872 87.5172 51.6695 91.6705 59.0277 91.6705H60.1945L61.0929 91.6672L65.7755 91.6391C65.8782 91.6343 65.9766 91.5964 66.056 91.531C66.1355 91.4657 66.1916 91.3764 66.216 91.2765L66.9272 87.7998C66.9683 87.6006 66.8351 87.4382 66.6317 87.4382H60.0159C57.3857 87.4382 56.6031 86.739 56.891 84.6835H67.4662C67.6394 84.6802 67.7963 84.5752 67.858 84.4107C67.8689 84.3815 67.8797 84.3501 67.884 84.3187C69.4535 78.3979 69.0032 74.4071 62.2771 74.4071L62.2749 74.4027ZM28.6617 80.7738L28.5621 81.1278L27.7633 83.9593L26.9645 86.7888C26.9313 86.8885 26.8686 86.9759 26.7847 87.0393C26.7009 87.1027 26.5997 87.1391 26.4947 87.1438H22.2668C19.0607 87.1438 18.2803 84.6359 19.0607 80.9372C19.84 77.1542 21.3716 74.8021 24.5269 74.564C28.8392 74.2393 29.7008 77.2722 28.6617 80.7727V80.7738ZM31.5604 86.9273C31.5604 86.9273 33.552 82.0889 34.0067 79.2931C34.6236 75.5512 32.751 70.125 25.5151 70.125C18.3203 70.125 15.1965 75.3055 14.0047 80.9492C12.8141 86.621 14.3749 91.5958 21.5275 91.5568L32.4447 91.5168C32.5494 91.5117 32.65 91.4745 32.7327 91.4102C32.8154 91.3459 32.8763 91.2576 32.9069 91.1574L33.827 87.6525C33.8419 87.6101 33.8459 87.5646 33.8388 87.5202C33.8317 87.4758 33.8136 87.4338 33.7862 87.3982C33.7588 87.3625 33.723 87.3342 33.6819 87.3159C33.6408 87.2976 33.5958 87.2897 33.551 87.2932L31.7899 87.2824C31.6167 87.2813 31.5193 87.1698 31.5387 87.0226C31.5431 86.9955 31.5496 86.9685 31.5604 86.9403V86.9273Z" fill="#131B28"/>
<path d="M67.1761 83.6898C67.1761 83.824 67.0678 83.9323 66.9336 83.9323C66.7994 83.9323 66.6912 83.824 66.6912 83.6898C66.6912 83.5556 66.7994 83.4474 66.9336 83.4474C67.0678 83.4474 67.1761 83.5556 67.1761 83.6898Z" fill="#131B28"/>
</svg>
