<svg width="100" height="100" viewBox="0 0 100 100" fill="none" xmlns="http://www.w3.org/2000/svg">
<path d="M50.2907 99.8145C48.9152 99.8145 47.6314 99.4477 46.4393 98.8058L34.2433 91.5615C32.4093 90.5528 33.3263 90.1861 33.8765 90.0027C36.3524 89.1774 36.8109 88.994 39.3785 87.5268C39.6536 87.3434 40.0204 87.4351 40.2955 87.6185L49.6488 93.2121C50.0156 93.3955 50.4741 93.3955 50.7492 93.2121L87.3371 72.0296C87.7039 71.8462 87.8873 71.4794 87.8873 71.0209V28.7477C87.8873 28.2892 87.7039 27.9224 87.3371 27.739L50.7492 6.64818C50.3824 6.46479 49.9239 6.46479 49.6488 6.64818L13.0608 27.739C12.694 27.9224 12.5106 28.3809 12.5106 28.7477V71.0209C12.5106 71.3877 12.694 71.8462 13.0608 72.0296L23.056 77.8067C28.4663 80.5576 31.8591 77.3482 31.8591 74.1387V32.4156C31.8591 31.8654 32.3176 31.3152 32.9595 31.3152H37.6362C38.1864 31.3152 38.7366 31.7737 38.7366 32.4156V74.1387C38.7366 81.3829 34.7935 85.6011 27.9161 85.6011C25.807 85.6011 24.1564 85.6011 19.4798 83.3086L9.85136 77.8067C7.46719 76.4312 6 73.8636 6 71.1126V28.8394C6 26.0884 7.46719 23.5208 9.85136 22.1453L46.4393 0.96284C48.7318 -0.320947 51.8495 -0.320947 54.142 0.96284L90.73 22.1453C93.1141 23.5208 94.5813 26.0884 94.5813 28.8394V71.1126C94.5813 73.8636 93.1141 76.4312 90.73 77.8067L54.142 98.9892C52.9499 99.5394 51.5744 99.8145 50.2907 99.8145ZM61.5696 70.7458C45.5223 70.7458 42.2211 63.4099 42.2211 57.1744C42.2211 56.6242 42.6796 56.074 43.3215 56.074H48.0899C48.6401 56.074 49.0986 56.4408 49.0986 56.991C49.8322 61.851 51.9412 64.2352 61.6613 64.2352C69.3641 64.2352 72.6652 62.4929 72.6652 58.3665C72.6652 55.9823 71.7482 54.24 59.7357 53.0479C49.7405 52.0392 43.5049 49.8385 43.5049 41.8606C43.5049 34.433 49.7405 30.0315 60.1942 30.0315C71.9316 30.0315 77.7087 34.0662 78.4423 42.8693C78.4423 43.1444 78.3506 43.4195 78.1672 43.6946C77.9838 43.878 77.7087 44.0614 77.4336 44.0614H72.6652C72.2067 44.0614 71.7482 43.6946 71.6565 43.2361C70.5562 38.1927 67.7135 36.5421 60.1942 36.5421C51.7578 36.5421 50.7492 39.4765 50.7492 41.6772C50.7492 44.3365 51.9412 45.1618 63.3119 46.629C74.5909 48.0962 79.9095 50.2053 79.9095 58.0914C79.8178 66.1609 73.2154 70.7458 61.5696 70.7458Z" fill="#539E43"/>
</svg>
