<svg width="100" height="100" viewBox="0 0 100 100" fill="none" xmlns="http://www.w3.org/2000/svg">
<g clip-path="url(#clip0_2_247)">
<g filter="url(#filter0_f_2_247)">
<path d="M89.6887 84.2464C89.6887 90.1297 71.8521 94.9234 49.8444 94.9234C27.8366 94.9234 10 90.1608 10 84.2464C10 78.3631 27.8366 73.5694 49.8444 73.5694C71.8521 73.5694 89.6576 78.3631 89.6887 84.2464Z" fill="black" fill-opacity="0.2"/>
</g>
<path d="M28.0234 72.76C24.1634 67.2192 23.4163 49.1647 32.4125 38.0518C36.8638 32.7289 38.0156 29.0246 38.358 24.0129C38.607 18.3164 34.3424 1.35146 50.4047 0.0751905C66.6848 -1.2322 65.7821 14.8301 65.6887 23.3281C65.6265 30.4876 70.9494 34.5655 74.6226 40.1686C81.3774 50.441 80.8171 68.1219 73.3463 77.7094C63.8833 89.6939 55.7899 84.4954 50.4047 84.9312C40.3191 85.5227 39.9767 90.8767 28.0234 72.76Z" fill="black"/>
<path d="M67.3074 41.2269C70.109 43.8106 77.3619 55.3592 65.8755 62.581C61.8288 65.1024 69.4864 74.69 73.1595 70.0518C79.6654 61.7094 75.5253 48.3865 71.6031 43.6238C68.9883 40.262 64.9416 38.9546 67.3074 41.2269Z" fill="url(#paint0_linear_2_247)"/>
<path d="M66.5292 39.6705C71.1362 43.4059 79.5097 56.4799 67.2763 65.009C63.2607 67.655 70.8249 76.0285 75.0895 71.7639C89.8755 56.8845 74.716 39.795 69.4864 33.9118C64.8171 28.7756 60.677 35.0946 66.5292 39.6705Z" fill="black" stroke="black" stroke-width="0.9773"/>
<path d="M59.8988 8.19971C59.7432 12.4643 55.0428 16.1686 49.4086 16.511C43.7743 16.8534 39.3541 13.616 39.5097 9.35146C39.6654 5.08687 44.3658 1.38259 50 1.04017C55.6342 0.728889 60.0545 3.93512 59.8988 8.19971Z" fill="url(#paint1_linear_2_247)"/>
<path d="M46.4202 18.3476C46.5759 21.118 45.2685 23.4526 43.463 23.546C41.6576 23.6394 40.07 21.4915 39.9144 18.7211C39.7588 15.9507 41.0661 13.616 42.8716 13.5227C44.677 13.4293 46.2646 15.5771 46.4202 18.3476Z" fill="url(#paint2_linear_2_247)"/>
<path d="M49.6887 18.5655C49.751 21.7717 51.8366 24.3242 54.3268 24.262C56.8171 24.1997 58.7782 21.5538 58.716 18.3164C58.6537 15.1102 56.5681 12.5577 54.0778 12.6199C51.5876 12.6822 49.5953 15.3592 49.6887 18.5655Z" fill="url(#paint3_linear_2_247)"/>
<path d="M51.7432 19.2814C51.7121 21.0557 52.5837 22.4876 53.7354 22.4876C54.856 22.4876 55.821 21.0557 55.8521 19.3125C55.8833 17.5382 55.0117 16.1063 53.8599 16.1063C52.7082 16.1063 51.7743 17.5382 51.7432 19.2814Z" fill="black"/>
<path d="M44.5525 19.3125C44.7082 20.7756 44.1479 22.0207 43.3385 22.1452C42.5292 22.2386 41.751 21.1491 41.5953 19.6861C41.4397 18.2231 42 16.9779 42.8093 16.8534C43.6187 16.76 44.3969 17.8495 44.5525 19.3125Z" fill="black"/>
<path d="M52.2101 18.2853C52.1167 19.2814 52.5837 20.0908 53.2373 20.153C53.891 20.2153 54.5136 19.4371 54.607 18.4721C54.7004 17.476 54.2335 16.6666 53.5798 16.6044C52.9261 16.5421 52.3035 17.3203 52.2101 18.2853Z" fill="url(#paint4_linear_2_247)"/>
<path d="M43.8677 18.5343C43.9611 19.3437 43.6187 20.0596 43.1206 20.1219C42.6226 20.1841 42.1556 19.5616 42.0622 18.7211C41.9689 17.9118 42.3113 17.1958 42.8093 17.1336C43.3074 17.0713 43.7743 17.725 43.8677 18.5343Z" fill="url(#paint5_linear_2_247)"/>
<path d="M34.0623 49.1024C36.2724 44.0908 40.9728 35.2814 41.0662 28.4643C41.0662 23.048 57.2841 21.7406 58.5914 27.1569C59.8988 32.5732 63.1985 40.6666 65.3152 44.5888C67.4319 48.4799 73.5642 60.9001 67.0272 71.7328C61.144 81.3203 43.3074 88.9157 33.7821 70.4254C30.5448 64.0129 31.1362 56.0752 34.0623 49.1024Z" fill="url(#paint6_linear_2_247)"/>
<path d="M32.07 45.367C30.1712 48.9468 26.249 58.3476 35.8366 63.4837C46.1401 68.9623 46.109 80.1997 33.7198 74.8456C22.3891 70.0207 27.4008 50.4721 30.5759 45.8028C32.6304 42.5343 35.7432 38.5188 32.07 45.367Z" fill="url(#paint7_linear_2_247)"/>
<path d="M33.6887 41.3203C30.6693 46.2386 23.4475 57.8184 33.1284 63.8573C46.1401 71.8573 42.4669 79.8262 30.5759 72.6355C13.8288 62.6122 28.5525 42.3787 35.2451 34.6588C42.9027 26.0052 36.7082 36.2464 33.6887 41.3203Z" fill="black" stroke="black" stroke-width="1.25"/>
<path d="M63.0117 51.0013C63.0117 56.4799 57.751 63.5771 48.7237 63.5149C39.4164 63.5771 35.463 56.4799 35.463 51.0013C35.463 45.5227 41.6265 41.0713 49.2218 41.0713C56.8483 41.1024 63.0117 45.5227 63.0117 51.0013Z" fill="url(#paint8_linear_2_247)"/>
<path d="M58.0934 33.7872C58 39.4526 54.2957 40.7911 49.6265 40.7911C44.9572 40.7911 41.5642 39.9507 41.1595 33.7872C41.1595 29.9273 44.9572 27.6861 49.6265 27.6861C54.2957 27.655 58.0934 29.8962 58.0934 33.7872Z" fill="url(#paint9_linear_2_247)"/>
<path d="M29.8599 42.5032C32.9105 37.8651 39.3541 30.7367 31.0739 43.4993C24.3502 54.0207 28.5837 60.7756 30.7626 62.6433C37.0506 68.2464 36.8016 72.0129 31.8521 69.0557C21.2373 62.7367 23.4475 52.0908 29.8599 42.5032Z" fill="url(#paint10_linear_2_247)"/>
<path d="M74.0311 44.402C71.3852 38.9546 62.9805 25.1336 74.4358 41.1958C84.8638 55.7328 77.5486 65.8495 76.2412 66.8456C74.9338 67.8417 70.5447 69.8651 71.821 66.3476C73.1284 62.8301 79.6031 56.1686 74.0311 44.402Z" fill="url(#paint11_linear_2_247)"/>
<path d="M27.5564 87.3592C20.5837 83.655 10.4669 88.0752 14.1401 78.0518C14.8872 75.7795 13.0506 72.3553 14.2335 70.1452C15.6342 67.4371 18.6537 68.0285 20.4591 66.2231C22.2335 64.3554 23.3541 61.118 26.6848 61.616C29.9844 62.1141 32.1946 66.1608 34.4981 71.1413C36.2101 74.69 42.249 79.7017 41.8444 83.6861C41.3463 89.7873 34.4047 90.939 27.5564 87.3592Z" fill="url(#paint12_linear_2_247)" stroke="#E68C3F" stroke-width="6.25"/>
<path d="M78.3268 63.8262C77.2685 65.8184 72.8482 69.0246 69.891 68.1841C66.9027 67.3748 65.5331 62.8301 66.1245 59.3748C66.6848 55.5149 69.891 55.297 73.9377 57.2269C78.2957 59.3748 79.6031 61.1802 78.3268 63.8262Z" fill="url(#paint13_linear_2_247)"/>
<path d="M75.8988 85.6472C81.0039 79.4526 92.3658 80.7289 84.7082 72.2308C83.0895 70.3943 83.5876 66.4721 81.5953 64.7911C79.2607 62.7367 76.677 64.4176 74.3113 63.3592C71.9455 62.2075 69.4553 59.9974 66.5603 61.5538C63.6654 63.1413 63.3541 67.2503 63.0739 72.6666C62.8249 76.5577 59.2763 83.0635 61.1751 86.6433C63.9144 92.1841 71.0428 91.4371 75.8988 85.6472Z" fill="url(#paint14_linear_2_247)" stroke="#E68C3F" stroke-width="6.2507"/>
<path d="M73.6887 77.367C81.5953 65.6939 75.7121 65.7873 73.7198 64.8845C71.7276 63.9507 69.642 62.1141 67.3074 63.3904C64.9728 64.6978 64.8482 68.0596 64.786 72.4799C64.6926 75.655 62.0467 80.9779 63.6342 83.9351C65.5642 87.3904 70.2335 82.3787 73.6887 77.367Z" fill="url(#paint15_linear_2_247)"/>
<path d="M25.9377 79.048C14.109 71.3904 19.6498 68.7756 21.4241 67.5616C23.572 66.0052 23.6031 63.0168 26.249 63.297C28.8949 63.5771 30.4514 66.8456 32.2257 70.8923C33.5331 73.7873 38.0778 77.6472 37.7354 80.9779C37.2996 84.9001 31.0428 82.3164 25.9377 79.048Z" fill="url(#paint16_linear_2_247)"/>
<path d="M77.642 63.7328C76.7082 65.3515 72.9105 67.904 70.3891 67.2192C67.8054 66.5655 66.6226 62.9234 67.1517 60.1841C67.6187 57.0713 70.3891 56.9157 73.8755 58.4721C77.5798 60.153 78.7315 61.5849 77.642 63.7328Z" fill="black"/>
<path d="M75.0895 62.8301C74.498 63.9507 72.0078 65.725 70.2646 65.2581C68.5214 64.7911 67.6498 62.2697 67.93 60.3709C68.179 58.2231 70.0467 58.0985 72.4124 59.1569C74.965 60.3398 75.7743 61.3359 75.0895 62.8301Z" fill="url(#paint17_linear_2_247)"/>
<path d="M42.9027 22.2075C44.1479 21.0557 47.1673 17.5382 52.8949 21.2114C53.9533 21.8962 54.8249 21.9585 56.8482 22.8301C60.9261 24.511 58.9961 28.5577 54.6381 29.9273C52.7704 30.5188 51.0895 32.7911 47.7276 32.5732C44.8327 32.4176 44.0856 30.5188 42.3113 29.4915C39.1673 27.7172 38.7004 25.3203 40.4124 24.0441C42.1245 22.7678 42.7782 22.3009 42.9027 22.2075Z" fill="url(#paint18_linear_2_247)" stroke="#E68C3F" stroke-width="3.75"/>
<path d="M56.9105 25.476C55.1984 25.5694 51.4942 29.2736 47.6031 29.2736C43.7121 29.2736 41.3774 25.6627 40.786 25.6627" stroke="#E68C3F" stroke-width="2.5"/>
<path d="M44.8327 21.8962C45.4553 21.3359 47.4163 19.8106 50 21.367C50.5603 21.6783 51.1206 22.0207 51.93 22.4876C53.5798 23.4526 52.7704 24.8534 50.7782 25.725C49.8755 26.0985 48.3813 26.9079 47.2607 26.8456C46.0156 26.7211 45.1751 25.9118 44.3658 25.3826C42.8405 24.3865 42.9339 23.546 43.6498 22.8923C44.179 22.3943 44.7704 21.9273 44.8327 21.8962Z" fill="url(#paint19_linear_2_247)"/>
</g>
<defs>
<filter id="filter0_f_2_247" x="-3" y="60.5694" width="105.689" height="47.3541" filterUnits="userSpaceOnUse" color-interpolation-filters="sRGB">
<feFlood flood-opacity="0" result="BackgroundImageFix"/>
<feBlend mode="normal" in="SourceGraphic" in2="BackgroundImageFix" result="shape"/>
<feGaussianBlur stdDeviation="6.5" result="effect1_foregroundBlur_2_247"/>
</filter>
<linearGradient id="paint0_linear_2_247" x1="639.243" y1="3637.91" x2="843.604" y2="1346.66" gradientUnits="userSpaceOnUse">
<stop stop-color="#FFEED7"/>
<stop offset="1" stop-color="#BDBFC2"/>
</linearGradient>
<linearGradient id="paint1_linear_2_247" x1="1149.24" y1="38.3227" x2="1051.73" y2="1410.92" gradientUnits="userSpaceOnUse">
<stop stop-color="white" stop-opacity="0.8"/>
<stop offset="1" stop-color="white" stop-opacity="0"/>
</linearGradient>
<linearGradient id="paint2_linear_2_247" x1="378.596" y1="898.575" x2="318.537" y2="113.924" gradientUnits="userSpaceOnUse">
<stop stop-color="#FFEED7"/>
<stop offset="1" stop-color="#BDBFC2"/>
</linearGradient>
<linearGradient id="paint3_linear_2_247" x1="500.601" y1="1008.09" x2="500.579" y2="173.437" gradientUnits="userSpaceOnUse">
<stop stop-color="#FFEED7"/>
<stop offset="1" stop-color="#BDBFC2"/>
</linearGradient>
<linearGradient id="paint4_linear_2_247" x1="182.677" y1="27.6296" x2="141.54" y2="347.641" gradientUnits="userSpaceOnUse">
<stop stop-color="white" stop-opacity="0.65"/>
<stop offset="1" stop-color="white" stop-opacity="0"/>
</linearGradient>
<linearGradient id="paint5_linear_2_247" x1="125.764" y1="33.5353" x2="170.051" y2="292.719" gradientUnits="userSpaceOnUse">
<stop stop-color="white" stop-opacity="0.65"/>
<stop offset="1" stop-color="white" stop-opacity="0"/>
</linearGradient>
<linearGradient id="paint6_linear_2_247" x1="1949" y1="5238.9" x2="1949" y2="2382.22" gradientUnits="userSpaceOnUse">
<stop stop-color="#FFEED7"/>
<stop offset="1" stop-color="#BDBFC2"/>
</linearGradient>
<linearGradient id="paint7_linear_2_247" x1="915.979" y1="3504.21" x2="186.831" y2="1018.53" gradientUnits="userSpaceOnUse">
<stop stop-color="#FFEED7"/>
<stop offset="1" stop-color="#BDBFC2"/>
</linearGradient>
<linearGradient id="paint8_linear_2_247" x1="1408.52" y1="337.982" x2="1415.84" y2="2165.93" gradientUnits="userSpaceOnUse">
<stop stop-color="white" stop-opacity="0.8"/>
<stop offset="1" stop-color="white" stop-opacity="0"/>
</linearGradient>
<linearGradient id="paint9_linear_2_247" x1="886.62" y1="516.871" x2="894.733" y2="1243.7" gradientUnits="userSpaceOnUse">
<stop stop-color="white" stop-opacity="0.65"/>
<stop offset="1" stop-color="white" stop-opacity="0"/>
</linearGradient>
<linearGradient id="paint10_linear_2_247" x1="575.932" y1="114.002" x2="575.932" y2="2781.3" gradientUnits="userSpaceOnUse">
<stop stop-color="white" stop-opacity="0.65"/>
<stop offset="1" stop-color="white" stop-opacity="0"/>
</linearGradient>
<linearGradient id="paint11_linear_2_247" x1="635.616" y1="112.422" x2="634.624" y2="2522.45" gradientUnits="userSpaceOnUse">
<stop stop-color="white" stop-opacity="0.65"/>
<stop offset="1" stop-color="white" stop-opacity="0"/>
</linearGradient>
<linearGradient id="paint12_linear_2_247" x1="1537.35" y1="1422.28" x2="1141.79" y2="2795.4" gradientUnits="userSpaceOnUse">
<stop stop-color="#FFA63F"/>
<stop offset="1" stop-color="#FFFF00"/>
</linearGradient>
<linearGradient id="paint13_linear_2_247" x1="736.54" y1="1812.8" x2="680.034" y2="-737.898" gradientUnits="userSpaceOnUse">
<stop stop-color="#FFEED7"/>
<stop offset="1" stop-color="#BDBFC2"/>
</linearGradient>
<linearGradient id="paint14_linear_2_247" x1="876.086" y1="1061.4" x2="1953.13" y2="2587.27" gradientUnits="userSpaceOnUse">
<stop stop-color="#FFA63F"/>
<stop offset="1" stop-color="#FFFF00"/>
</linearGradient>
<linearGradient id="paint15_linear_2_247" x1="931.121" y1="-317.936" x2="563.037" y2="1483.99" gradientUnits="userSpaceOnUse">
<stop stop-color="white" stop-opacity="0.65"/>
<stop offset="1" stop-color="white" stop-opacity="0"/>
</linearGradient>
<linearGradient id="paint16_linear_2_247" x1="934.836" y1="94.07" x2="1007.59" y2="2115.76" gradientUnits="userSpaceOnUse">
<stop stop-color="white" stop-opacity="0.65"/>
<stop offset="1" stop-color="white" stop-opacity="0"/>
</linearGradient>
<linearGradient id="paint17_linear_2_247" x1="392.046" y1="89.456" x2="477.281" y2="694.406" gradientUnits="userSpaceOnUse">
<stop stop-color="white" stop-opacity="0.65"/>
<stop offset="1" stop-color="white" stop-opacity="0"/>
</linearGradient>
<linearGradient id="paint18_linear_2_247" x1="1017.13" y1="248.621" x2="1024.24" y2="1312.39" gradientUnits="userSpaceOnUse">
<stop stop-color="#FFA63F"/>
<stop offset="1" stop-color="#FFFF00"/>
</linearGradient>
<linearGradient id="paint19_linear_2_247" x1="528.05" y1="38.4983" x2="526.127" y2="600.98" gradientUnits="userSpaceOnUse">
<stop stop-color="white" stop-opacity="0.65"/>
<stop offset="1" stop-color="white" stop-opacity="0"/>
</linearGradient>
<clipPath id="clip0_2_247">
<rect width="100" height="100" fill="white"/>
</clipPath>
</defs>
</svg>
