<svg width="100" height="100" viewBox="0 0 100 100" fill="none" xmlns="http://www.w3.org/2000/svg">
<path d="M95.0011 87.164C95.0196 90.7138 93.5139 94.1009 90.8661 96.4653C88.2182 98.8298 84.683 99.9441 81.1579 99.5253C74.8145 98.5867 70.1659 93.0666 70.3205 86.656V12.9534C70.1673 6.53581 74.8272 1.01301 81.1791 0.0840221C84.7007 -0.328175 88.2301 0.789102 90.8731 3.15278C93.516 5.51645 95.0189 8.89972 95.0011 12.4454V87.164Z" fill="#F9AB00"/>
<path d="M17.3402 74.9507C24.1555 74.9507 29.6804 80.4756 29.6804 87.291C29.6804 94.1063 24.1555 99.6312 17.3402 99.6312C10.5249 99.6312 5 94.1063 5 87.291C5 80.4756 10.5249 74.9507 17.3402 74.9507ZM49.81 37.5491C42.9624 37.9245 37.6496 43.6683 37.8084 50.5243V83.6714C37.8084 92.6673 41.7666 98.1283 47.5663 99.2925C51.2073 100.03 54.9871 99.0917 57.8598 96.7361C60.7325 94.3805 62.3934 90.8578 62.3831 87.1428V49.9528C62.3891 46.6318 61.0609 43.4476 58.6967 41.1153C56.3325 38.7829 53.1306 37.498 49.81 37.5491Z" fill="#E37400"/>
</svg>
