<svg width="101" height="100" viewBox="0 0 101 100" fill="none" xmlns="http://www.w3.org/2000/svg">
<g clip-path="url(#clip0_2_188)">
<path d="M49.7709 0.0283508C24.3465 0.0283526 25.9342 11.0539 25.9342 11.0539L25.9625 22.4763H50.2244V25.9058H16.3258C16.3258 25.9058 0.0567017 24.0608 0.0567017 49.7142C0.0566998 75.3677 14.2567 74.458 14.2567 74.458H22.7314V62.5538C22.7314 62.5538 22.2746 48.3538 36.7047 48.3538H60.7682C60.7682 48.3538 74.2879 48.5723 74.2879 35.2875V13.3214C74.2879 13.3214 76.3406 0.0283508 49.7709 0.0283508ZM36.3929 7.7094C38.8068 7.7094 40.7578 9.66039 40.7578 12.0743C40.7578 14.4882 38.8068 16.4392 36.3929 16.4392C33.979 16.4392 32.028 14.4882 32.028 12.0743C32.028 9.66039 33.979 7.7094 36.3929 7.7094Z" fill="url(#paint0_linear_2_188)"/>
<path d="M50.493 99.6574C75.9174 99.6574 74.3297 88.6318 74.3297 88.6318L74.3014 77.2094H50.0395V73.7799H83.9381C83.9381 73.7799 100.207 75.6249 100.207 49.9715C100.207 24.318 86.0072 25.2277 86.0072 25.2277H77.5325V37.1319C77.5325 37.1319 77.9893 51.3319 63.5593 51.3319H39.4958C39.4958 51.3319 25.976 51.1134 25.976 64.3982V86.3643C25.976 86.3643 23.9233 99.6574 50.493 99.6574ZM63.871 91.9763C61.4572 91.9763 59.5062 90.0253 59.5062 87.6114C59.5062 85.1976 61.4572 83.2466 63.871 83.2466C66.2849 83.2466 68.2359 85.1976 68.2359 87.6114C68.2359 90.0253 66.2849 91.9763 63.871 91.9763Z" fill="url(#paint1_linear_2_188)"/>
</g>
<defs>
<linearGradient id="paint0_linear_2_188" x1="962.522" y1="896.164" x2="5925.62" y2="5809.75" gradientUnits="userSpaceOnUse">
<stop stop-color="#387EB8"/>
<stop offset="1" stop-color="#366994"/>
</linearGradient>
<linearGradient id="paint1_linear_2_188" x1="1446.5" y1="1557.01" x2="6776.34" y2="6595.46" gradientUnits="userSpaceOnUse">
<stop stop-color="#FFE052"/>
<stop offset="1" stop-color="#FFC331"/>
</linearGradient>
<clipPath id="clip0_2_188">
<rect width="100.392" height="100" fill="white"/>
</clipPath>
</defs>
</svg>
