<svg width="100" height="100" viewBox="0 0 100 100" fill="none" xmlns="http://www.w3.org/2000/svg">
<g clip-path="url(#clip0_2_245)">
<path d="M61.7412 96.9854L62.7006 80.9983L65.3498 76.476C65.3498 76.476 59.3202 78.9426 49.2257 78.9426C39.131 78.9426 33.1928 76.5216 33.1928 76.5216L36.1618 81.4547L37.2121 96.9854C37.2121 98.6504 42.703 100 49.4767 100C56.2501 100 61.7412 98.6504 61.7412 96.9854Z" fill="#D34A47"/>
<path d="M58.7147 22.3279L60.7285 14.3679L71.8806 2.63334L68.9413 0.129822L57.1345 12.6301L54.7963 22.1402C53.1021 22.0829 51.3341 22.0523 49.5151 22.0523C37.0804 22.0523 27 23.4694 27 25.2172C27 26.9651 37.0804 28.3821 49.5151 28.3821C61.9496 28.3821 72.0298 26.9651 72.0298 25.2172C72.0298 23.9302 66.5627 22.8224 58.7147 22.3279Z" fill="#D34A47"/>
<path d="M57.5433 26.7857C57.5433 26.7857 57.1071 26.8834 55.8242 26.8889C54.5408 26.8942 53.6297 26.8806 53.2667 26.55C53.1691 26.4613 53.1157 26.285 53.1163 26.1657C53.1173 25.9385 53.2786 25.8047 53.484 25.7209L53.6783 26.0256C53.5938 26.0548 53.5455 26.0893 53.5453 26.1261C53.5446 26.2986 54.8575 26.4167 55.8616 26.404C56.866 26.3916 58.0795 26.3089 58.0805 26.1388C58.0805 26.0873 57.9888 26.0389 57.8291 26.0007L58.0225 25.6981C58.2828 25.7788 58.51 25.9349 58.5094 26.2051C58.507 26.6644 57.9225 26.7342 57.5433 26.7857Z" fill="white"/>
<path d="M71.8586 2.6565C72.139 2.33262 71.7135 1.50419 70.9082 0.806397C70.1026 0.108961 69.2222 -0.194056 68.9413 0.129823C68.6607 0.453702 69.0864 1.28214 69.892 1.97957C70.6973 2.67719 71.5781 2.98056 71.8586 2.6565Z" fill="#D34A47"/>
<path d="M61.2048 57.9353C60.9405 55.3924 66.7669 51.7095 65.2716 51.5916C62.0527 51.7756 60.4506 55.3639 58.831 59.1221C58.2375 60.4995 56.2067 66.3728 54.8748 65.6497C53.5432 64.927 56.6012 60.0973 57.4582 57.2291C56.4693 57.9542 52.8424 60.7721 51.9078 58.1332C50.405 59.4094 47.194 60.1008 47.5562 56.7484C46.7568 58.1645 44.9626 60.1415 42.8089 59.3199C39.9806 58.2414 44.4478 49.232 45.5585 49.6865C46.6695 50.1408 45.3344 52.1932 44.9847 52.9902C44.2156 54.7441 43.3273 56.949 43.9207 57.4004C44.9375 58.1736 47.7042 54.475 47.7657 54.3937C48.2832 53.7101 49.7575 49.2375 50.9457 49.751C52.1339 50.2646 47.982 56.1699 49.5343 57.3418C49.8474 57.5784 51.1285 57.196 51.9078 56.3529C52.412 55.8075 52.2385 54.5995 53.9193 50.5913C55.6 46.5833 57.0979 41.5918 58.2506 41.9721C59.4033 42.3522 58.4532 44.9141 58.0397 45.8691C56.0993 50.3514 52.7438 57.7566 54.3262 57.196C55.9087 56.6356 56.7327 56.6027 58.2823 54.7894C59.8318 52.976 59.7604 49.9892 60.7932 50.0526C61.8264 50.1163 61.6529 51.0739 61.4024 51.8032C62.419 50.6399 66.221 48.19 67.1389 50.6164C68.2262 53.4891 61.6993 57.6385 63.3266 57.4269C64.9133 57.2206 67.4838 55.5925 68.5813 54.1122L71.6023 26.9527C71.6023 26.9527 68.5624 29.4685 49.2227 29.4685C29.8827 29.4685 27.1573 27.0051 27.1573 27.0051L29.7293 51.7952C31.0945 47.9152 34.3363 40.0672 39.4462 40.3306C41.7706 40.4505 44.8736 44.9263 42.2156 45.0779C41.0905 45.1419 40.9763 42.8438 39.644 42.5064C38.6826 42.2627 37.3442 43.0443 36.4791 43.8911C34.754 45.5795 31.0437 52.2408 31.534 55.5618C32.1586 59.7957 37.3765 54.0905 38.2594 52.3967C38.8812 51.2035 39.3012 47.6684 40.6611 48.0393C42.0211 48.4103 40.5425 52.0585 39.5567 55.284C38.4493 58.9059 37.8671 62.7265 36.4791 62.287C35.091 61.8479 37.3521 57.1721 37.2703 56.3529C35.9655 57.5566 33.5619 60.6041 30.4868 59.0958L32.0841 74.4903C32.0841 74.4903 36.3294 77.8445 49.1178 77.8445C61.9063 77.8445 66.3087 74.5426 66.3087 74.5426L68.2921 56.7121C66.6694 58.2923 61.5336 61.0983 61.2048 57.9353Z" fill="#D34A47"/>
</g>
<defs>
<clipPath id="clip0_2_245">
<rect width="100" height="100" fill="white"/>
</clipPath>
</defs>
</svg>
