<svg width="100" height="100" viewBox="0 0 100 100" fill="none" xmlns="http://www.w3.org/2000/svg">
<path d="M56.1008 76.2457H93.275C94.4558 76.2457 95.6157 75.9445 96.6382 75.3718C97.6607 74.799 98.5098 73.9754 99.0999 72.9833C99.6899 71.9914 100 70.8662 100 69.7208C100 68.5755 99.688 67.4507 99.0969 66.459L74.1319 24.5155C73.5418 23.5238 72.6928 22.7002 71.6705 22.1276C70.6482 21.555 69.4885 21.2535 68.3081 21.2535C67.1275 21.2535 65.9678 21.555 64.9455 22.1276C63.9232 22.7002 63.0744 23.5238 62.4843 24.5155L56.1008 35.2474L43.62 14.2615C43.0295 13.2699 42.1803 12.4464 41.1578 11.8739C40.1351 11.3014 38.9752 11 37.7945 11C36.6139 11 35.454 11.3014 34.4313 11.8739C33.4088 12.4464 32.5595 13.2699 31.969 14.2615L0.902943 66.459C0.311936 67.4507 0 68.5755 0 69.7208C0 70.8662 0.309898 71.9914 0.900015 72.9833C1.49013 73.9754 2.33915 74.799 3.36165 75.3718C4.38418 75.9445 5.54414 76.2457 6.72488 76.2457H30.0597C39.3053 76.2457 46.1235 72.3065 50.8151 64.6213L62.2053 45.4874L68.3062 35.2474L86.6163 66.0059H62.2053L56.1008 76.2457ZM29.6792 65.9953L13.3946 65.9917L37.8053 24.9829L49.9856 45.4874L41.8303 59.1921C38.7148 64.1785 35.1752 65.9953 29.6792 65.9953Z" fill="#00DC82"/>
</svg>
