<svg width="100" height="100" viewBox="0 0 100 100" fill="none" xmlns="http://www.w3.org/2000/svg">
<path d="M85.87 55.9921C82.3909 56.0103 79.3673 56.8482 76.8354 58.0868C75.9064 56.2471 74.9775 54.6077 74.8135 53.4055C74.6314 52.003 74.4128 51.1469 74.6314 49.4711C74.8499 47.7953 75.8336 45.4092 75.8153 45.227C75.7971 45.0449 75.5968 44.1888 73.5931 44.1706C71.5895 44.1523 69.8591 44.5531 69.6587 45.0813C69.4583 45.6095 69.0758 46.8117 68.8208 48.0503C68.4747 49.8718 64.8135 56.3746 62.7188 59.7808C62.0448 58.4511 61.462 57.2853 61.3345 56.3564C61.1523 54.9538 60.9337 54.0977 61.1523 52.4219C61.3709 50.7462 62.3545 48.36 62.3363 48.1779C62.3181 47.9957 62.1177 47.1396 60.1141 47.1214C58.1104 47.1032 56.38 47.5039 56.1796 48.0321C55.9793 48.5604 55.7607 49.799 55.3418 51.0012C54.9228 52.2034 50.0594 63.0594 48.7844 65.8645C48.1286 67.3035 47.564 68.4511 47.1632 69.2343C47.1632 69.2343 47.145 69.289 47.0904 69.38C46.7443 70.054 46.5439 70.4183 46.5439 70.4183C46.5439 70.4183 46.5439 70.4183 46.5439 70.4365C46.2707 70.9283 45.9793 71.3837 45.8336 71.3837C45.7243 71.3837 45.5239 70.0722 45.87 68.2871C46.5986 64.5166 48.329 58.6514 48.3108 58.4511C48.3108 58.3418 48.6387 57.3217 47.1815 56.7935C45.7607 56.2653 45.2507 57.1396 45.1232 57.1396C44.9957 57.1396 44.9046 57.4493 44.9046 57.4493C44.9046 57.4493 46.4893 50.8554 41.8809 50.8554C39.003 50.8554 35.0321 54.0066 33.0649 56.8482C31.8263 57.5221 29.1851 58.9611 26.3618 60.5094C25.2871 61.1105 24.176 61.7115 23.1377 62.2762C23.0649 62.2033 22.992 62.1123 22.9192 62.0394C17.3454 56.0831 7.03574 51.8755 7.4729 43.8791C7.63683 40.9647 8.63865 33.3145 27.2725 24.0248C42.6095 16.4656 54.8135 18.5604 56.9265 23.2052C59.9501 29.8354 50.3873 42.1487 34.5403 43.9338C28.4929 44.6077 25.3235 42.2762 24.5221 41.4019C23.6842 40.4911 23.5567 40.4365 23.247 40.6186C22.737 40.8919 23.0649 41.7115 23.247 42.1851C23.7206 43.4237 25.6696 45.6095 28.9665 46.6842C31.8809 47.6314 38.9665 48.1596 47.5458 44.8445C57.145 41.1287 64.6496 30.8008 62.4456 22.1487C60.2416 13.3691 45.6696 10.4729 31.8809 15.3727C23.6842 18.2871 14.7953 22.8773 8.40186 28.8518C0.806233 35.9556 -0.395953 42.1305 0.0958505 44.717C1.8627 53.8973 14.5221 59.8718 19.5858 64.2981C19.3308 64.4438 19.094 64.5713 18.8937 64.6806C16.3618 65.9374 6.70787 70.9829 4.3035 76.3199C1.57126 82.3673 4.74066 86.7024 6.83538 87.2853C13.3381 89.0886 20.023 85.8463 23.6113 80.4911C27.1997 75.136 26.7625 68.1778 25.105 64.9902C25.0867 64.9538 25.0685 64.9174 25.0321 64.8809C25.6878 64.4984 26.3618 64.0977 27.0175 63.7152C28.3108 62.9502 29.5858 62.2398 30.6787 61.6569C30.0594 63.3509 29.604 65.3727 29.3855 68.2871C29.1122 71.7115 30.5148 76.156 32.3545 77.9046C33.1742 78.6697 34.1396 78.6879 34.7589 78.6879C36.9082 78.6879 37.8736 76.9028 38.9483 74.7899C40.2598 72.2033 41.4438 69.1979 41.4438 69.1979C41.4438 69.1979 39.9683 77.3217 43.9756 77.3217C45.4328 77.3217 46.9082 75.4274 47.564 74.462V74.4802C47.564 74.4802 47.6004 74.4256 47.6733 74.2981C47.819 74.0613 47.9101 73.9156 47.9101 73.9156V73.8791C48.4929 72.8591 49.8044 70.5458 51.7534 66.7024C54.2671 61.748 56.6897 55.5549 56.6897 55.5549C56.6897 55.5549 56.9082 57.0667 57.655 59.5804C58.0922 61.0558 59.003 62.6769 59.7316 64.2434C59.1487 65.0631 58.7844 65.5185 58.7844 65.5185C58.7844 65.5185 58.7844 65.5185 58.8026 65.5367C58.329 66.156 57.819 66.8299 57.2543 67.4857C55.2689 69.8536 52.901 72.5676 52.5731 73.3509C52.1906 74.2798 52.2816 74.9538 53.0102 75.5003C53.5385 75.901 54.4857 75.9556 55.451 75.901C57.2361 75.7735 58.4929 75.3363 59.1122 75.0631C60.0776 74.717 61.207 74.1888 62.2634 73.4055C64.2124 71.9666 65.3964 69.9083 65.2871 67.1942C65.2325 65.7006 64.7407 64.207 64.1396 62.8044C64.3217 62.5494 64.4857 62.2944 64.6678 62.0394C67.7461 57.5403 70.1323 52.6041 70.1323 52.6041C70.1323 52.6041 70.3509 54.1159 71.0977 56.6296C71.462 57.9046 72.2088 59.289 72.8645 60.6369C69.9683 62.9866 68.1833 65.7188 67.5458 67.5039C66.3982 70.819 67.2908 72.3126 68.9847 72.6587C69.7498 72.8227 70.8427 72.4584 71.6441 72.1123C72.6642 71.7844 73.8663 71.2197 75.0139 70.3819C76.9629 68.9429 78.839 66.9392 78.7297 64.2252C78.6751 62.9866 78.3472 61.7662 77.8918 60.5822C80.3509 59.5622 83.5203 58.9975 87.564 59.4711C96.2343 60.4911 97.9465 65.901 97.6186 68.1778C97.2908 70.4547 95.4693 71.6933 94.8682 72.0758C94.2671 72.4584 94.0667 72.5859 94.1214 72.8591C94.1942 73.2598 94.4857 73.2416 94.9957 73.1687C95.7061 73.0412 99.5494 71.329 99.7133 67.1396C99.9866 61.7844 94.8864 55.9374 85.87 55.9921ZM18.9847 78.5421C16.1068 81.6751 12.0995 82.8591 10.3691 81.8573C8.51115 80.7826 9.23975 76.156 12.7734 72.8409C14.9228 70.819 17.6915 68.9429 19.5312 67.7953C19.9501 67.5403 20.5694 67.176 21.3163 66.7207C21.4438 66.6478 21.5166 66.6114 21.5166 66.6114C21.6623 66.5203 21.8081 66.4292 21.9538 66.3381C23.247 71.074 22.0084 75.2452 18.9847 78.5421ZM39.9319 64.2981C38.9301 66.7389 36.8354 72.9866 35.5603 72.6405C34.4674 72.3491 33.7935 67.6132 35.3418 62.932C36.125 60.5822 37.7826 57.7771 38.7479 56.6842C40.3144 54.9356 42.0448 54.3527 42.4638 55.0631C42.992 55.9921 40.5512 62.768 39.9319 64.2981ZM57.2179 72.5676C56.7989 72.7862 56.3982 72.9319 56.2161 72.8227C56.0886 72.7498 56.3982 72.4584 56.3982 72.4584C56.3982 72.4584 58.5658 70.1268 59.4219 69.0704C59.9137 68.4511 60.4966 67.7225 61.1159 66.9028V67.1396C61.1159 69.9265 58.4201 71.8026 57.2179 72.5676ZM70.5512 69.5258C70.2416 69.3072 70.2962 68.5786 71.3345 66.3017C71.7352 65.4092 72.6824 63.9156 74.3035 62.4766C74.4857 63.0595 74.6132 63.6241 74.5949 64.1523C74.5767 67.6678 72.0631 68.9793 70.5512 69.5258Z" fill="#CD6799"/>
</svg>
