<svg width="100" height="100" viewBox="0 0 100 100" fill="none" xmlns="http://www.w3.org/2000/svg">
<path d="M50.2905 99.7473L21.4312 91.7358L15 19.6027H85.6675L79.2295 91.7245L50.2905 99.7473Z" fill="#264DE4"/>
<path d="M73.7179 87.132L79.2196 25.5006H50.3337V93.615L73.7179 87.132Z" fill="#2965F1"/>
<path d="M29.7433 52.2538L30.5362 61.1005H50.3337V52.2538H29.7433Z" fill="#EBEBEB"/>
<path d="M28.1501 34.3476L28.9543 43.1945H50.3337V34.3476H28.1501Z" fill="#EBEBEB"/>
<path d="M50.3337 75.23L50.295 75.2403L40.4422 72.5798L39.8123 65.5241H30.9315L32.171 79.4149L50.293 84.4457L50.3337 84.4344V75.23Z" fill="#EBEBEB"/>
<path d="M31.6311 0H42.3462V4.48084H36.1119V8.96168H42.3462V13.4425H31.6311V0Z" fill="black"/>
<path d="M44.4892 0H55.2042V3.89638H48.97V4.67566H55.2042V13.6373H44.4892V9.54613H50.7234V8.76686H44.4892V0Z" fill="black"/>
<path d="M57.3472 0H68.0623V3.89638H61.8281V4.67566H68.0623V13.6373H57.3472V9.54613H63.5814V8.76686H57.3472V0Z" fill="black"/>
<path d="M70.8675 52.2538L72.4646 34.3476H50.3032V43.1945H62.7692L61.9643 52.2538H50.3032V61.1005H61.1971L60.1702 72.5742L50.3032 75.2374V84.4414L68.4396 79.4149L68.5727 77.9202L70.6516 54.6294L70.8675 52.2538Z" fill="white"/>
</svg>
