<svg width="100" height="100" viewBox="0 0 100 100" fill="none" xmlns="http://www.w3.org/2000/svg">
<path d="M83.3984 1H16.6016C7.43277 1 0 8.43277 0 17.6016V81.8984C0 91.0672 7.43277 98.5 16.6016 98.5H83.3984C92.5672 98.5 100 91.0672 100 81.8984V17.6016C100 8.43277 92.5672 1 83.3984 1Z" fill="#001E36"/>
<path d="M22.5173 69.373V26.5068C22.5173 26.1944 22.6516 26.0372 22.92 26.0372L23.3445 26.0359L24.0703 26.028L25.079 26.0081L28.458 25.9366L32.0807 25.8695C33.3551 25.8475 34.6184 25.8359 35.8707 25.8359C39.269 25.8359 42.1312 26.2608 44.4574 27.1105C46.5557 27.8203 48.4693 28.9891 50.059 30.5317C51.4065 31.8689 52.4478 33.4825 53.1111 35.2612C53.7387 36.9921 54.0567 38.8201 54.0506 40.6613C54.0506 44.2398 53.2231 47.1915 51.5684 49.5163C49.949 51.7859 47.6909 53.5198 45.0843 54.4991L44.86 54.5811C42.1363 55.5974 39.1199 55.9645 35.8116 55.9878L35.2977 55.9889L34.5349 55.9848L34.1498 55.9796L33.7209 55.9694L33.4627 55.9593L33.3055 55.9512L32.9192 55.937L32.4469 55.9275L31.7359 55.9221C31.684 55.922 31.6312 55.9219 31.5776 55.9219V69.306C31.6013 69.4723 31.5453 69.64 31.4266 69.7588C31.3078 69.8776 31.14 69.9335 30.9737 69.9097H22.9869C22.6736 69.9097 22.5173 69.7315 22.5173 69.373ZM31.5775 34.0872V48.0684C32.1582 48.1135 32.6948 48.1358 33.1874 48.1355H35.4012C36.9282 48.1304 38.4458 47.903 39.9064 47.461L40.1977 47.3698C41.5267 46.975 42.7143 46.2066 43.619 45.156C44.4598 44.1645 44.8953 42.7984 44.9255 41.0576L44.9271 40.8627C44.9625 39.565 44.6248 38.2845 43.9542 37.173C43.2493 36.0983 42.2304 35.2668 41.0361 34.7916C39.4768 34.1855 37.8112 33.9003 36.1391 33.9531L35.2883 33.9556L34.7516 33.96L34.2394 33.9666L33.5168 33.9808L32.9897 33.9957L32.7155 34.0058L32.3494 34.0229L32.0377 34.0421L31.8601 34.0561L31.7067 34.0712C31.6832 34.0738 31.6607 34.0764 31.6391 34.079L31.5775 34.0872ZM79.9879 45.5263C78.8173 44.9247 77.5759 44.4731 76.2932 44.1818L75.9964 44.1175C74.5847 43.7935 73.1437 43.6153 71.6962 43.5852L71.3342 43.5808C70.4854 43.5578 69.6378 43.6595 68.8185 43.8827C68.2971 43.9988 67.8336 44.2959 67.5103 44.7212C67.2917 45.0614 67.1753 45.4572 67.175 45.8616C67.1873 46.254 67.3287 46.6313 67.5775 46.935C67.9337 47.3516 68.3618 47.7004 68.8409 47.965L68.9862 48.0418C69.9426 48.5569 70.9282 49.0161 71.9378 49.417C74.1893 50.1707 76.3406 51.1957 78.3443 52.4693C79.7093 53.3308 80.8388 54.518 81.6314 55.9241C82.2979 57.2556 82.6317 58.7288 82.6041 60.2175C82.6443 62.1833 82.0825 64.1144 80.9942 65.7519C79.829 67.4141 78.2106 68.7064 76.3318 69.4749C74.3641 70.3393 71.9478 70.786 69.0829 70.8152L68.785 70.8167C67.0088 70.8346 65.2354 70.6791 63.49 70.3526L63.1164 70.28C61.6465 70.0105 60.2156 69.5598 58.8566 68.9383C58.5771 68.794 58.3991 68.5111 58.387 68.2002L58.387 60.8883C58.3705 60.7438 58.4351 60.6019 58.5548 60.5193C58.6728 60.4526 58.8197 60.466 58.9237 60.5529C60.5287 61.4993 62.2714 62.1896 64.0891 62.5989C65.6912 63.0005 67.3346 63.2144 68.9862 63.2362C70.5511 63.2362 71.7027 63.035 72.441 62.6325C73.122 62.3207 73.5558 61.6373 73.5479 60.8883C73.5479 60.3076 73.2125 59.7486 72.5417 59.2112C72.2604 58.9862 71.8572 58.7415 71.332 58.4771L71.081 58.3536L70.8127 58.2274C70.7665 58.2062 70.7196 58.1848 70.672 58.1633L70.3777 58.0329C70.3272 58.0109 70.276 57.9888 70.224 57.9666L69.9038 57.832C69.8489 57.8094 69.7934 57.7866 69.7371 57.7637L69.3909 57.6249C69.3317 57.6016 69.2718 57.5781 69.2113 57.5545L68.839 57.4115L68.4495 57.2658C66.3431 56.5326 64.3459 55.5171 62.5126 54.2471C61.2013 53.3351 60.1216 52.129 59.3597 50.7251C58.7 49.4033 58.3665 47.9426 58.387 46.4654C58.3833 44.6904 58.8708 42.9491 59.7957 41.4341C60.8503 39.7659 62.3646 38.438 64.1563 37.6104C66.1236 36.6272 68.5834 36.1353 71.5354 36.1345C73.2643 36.1206 74.9915 36.244 76.7009 36.5035C77.9386 36.6605 79.1488 36.9878 80.297 37.4762C80.4816 37.5292 80.6306 37.6658 80.6994 37.8452C80.7447 38.009 80.7673 38.1783 80.7665 38.3483V45.1237C80.776 45.2842 80.6993 45.4375 80.5653 45.5262C80.3835 45.6167 80.1698 45.6167 79.9879 45.5263Z" fill="#31A8FF"/>
</svg>
