<svg width="100" height="100" viewBox="0 0 100 100" fill="none" xmlns="http://www.w3.org/2000/svg">
<path d="M50.1379 0L94.2759 24.9671V74.9179L50.1379 99.885L6 74.9179V24.9671L50.1379 0Z" fill="white"/>
<path d="M86.3976 73.1857L51.6036 92.8895V77.5662L73.2895 65.6239L86.3976 73.1857ZM88.7794 71.0371V29.8639L76.0544 37.2091V63.6919L88.7794 71.0371ZM13.7449 73.1857L48.539 92.8729V77.5495L26.8531 65.6239L13.7449 73.1857ZM11.3632 71.0371V29.8639L24.0882 37.2091V63.6919L11.3632 71.0371ZM12.8455 27.199L48.539 7.0121V21.8358L25.6705 34.4109L25.4873 34.5109L12.8455 27.199ZM87.2804 27.199L51.6036 7.0121V21.8358L74.4554 34.4276L74.6386 34.5275L87.2804 27.199Z" fill="#8ED6FB"/>
<path d="M48.539 74.0684L27.1529 62.2928V38.9913L48.539 51.3332V74.0684ZM51.6036 74.0684L72.9897 62.3094V38.9913L51.6036 51.3332V74.0684ZM28.5853 36.293L50.0713 24.4841L71.5407 36.293L50.0713 48.685L28.5853 36.293Z" fill="#1C78C0"/>
</svg>
