<svg width="100" height="100" viewBox="0 0 100 100" fill="none" xmlns="http://www.w3.org/2000/svg">
<path d="M82.2201 34.8374C81.1827 34.4803 80.1078 34.1425 79.001 33.8229C79.1829 33.0805 79.3498 32.3477 79.4983 31.6273C81.9351 19.7988 80.3418 10.2696 74.9013 7.13222C69.6845 4.12387 61.1529 7.26056 52.5363 14.7593C51.7077 15.4804 50.8768 16.2438 50.0463 17.0439C49.4929 16.5145 48.9404 16.003 48.3893 15.5136C39.3589 7.49552 30.3073 4.11657 24.8721 7.26305C19.6603 10.2801 18.1169 19.2384 20.3104 30.4484C20.5222 31.5312 20.7698 32.6369 21.0498 33.7612C19.7687 34.1248 18.532 34.5125 17.3486 34.9249C6.76146 38.6161 0 44.401 0 50.4016C0 56.5989 7.25843 62.815 18.2858 66.5841C19.156 66.8816 20.059 67.1628 20.9896 67.4298C20.6875 68.6457 20.4248 69.8372 20.2043 70.9994C18.1128 82.0148 19.7461 90.7615 24.944 93.7595C30.313 96.8557 39.3236 93.6732 48.0977 86.0036C48.7912 85.3973 49.4872 84.7544 50.1844 84.0805C51.0881 84.9507 51.9904 85.7743 52.8879 86.5469C61.3866 93.8603 69.7805 96.8135 74.9736 93.8071C80.3372 90.7021 82.0803 81.306 79.8173 69.8743C79.6444 69.0012 79.4433 68.1092 79.2174 67.2014C79.8502 67.0144 80.4714 66.8212 81.0771 66.6204C92.5411 62.8221 100 56.6817 100 50.4016C100 44.3793 93.0205 38.5554 82.2201 34.8374ZM79.7336 62.5655C79.1868 62.7465 78.6257 62.9215 78.054 63.0911C76.7884 59.0845 75.0804 54.8241 72.9901 50.4224C74.9848 46.1255 76.6268 41.9196 77.857 37.939C78.8799 38.235 79.8728 38.5472 80.8295 38.8767C90.0833 42.0623 95.728 46.7723 95.728 50.4016C95.728 54.2673 89.6319 59.2857 79.7336 62.5655ZM75.6265 70.7039C76.6272 75.7589 76.7701 80.3292 76.1072 83.902C75.5117 87.1124 74.3139 89.2528 72.833 90.11C69.6815 91.9342 62.9421 89.563 55.6739 83.3085C54.8407 82.5916 54.0014 81.826 53.1595 81.0157C55.9772 77.934 58.7933 74.3515 61.5418 70.3727C66.3761 69.9437 70.9433 69.2424 75.0852 68.2849C75.2892 69.1078 75.4704 69.9148 75.6265 70.7039ZM34.0923 89.7948C31.0132 90.8822 28.561 90.9133 27.0786 90.0586C23.9243 88.2393 22.6129 81.2165 24.4017 71.7961C24.6065 70.7173 24.8504 69.609 25.1315 68.4763C29.2279 69.3821 33.7617 70.0339 38.6076 70.4268C41.3745 74.3201 44.272 77.8988 47.1919 81.0323C46.5539 81.6482 45.9185 82.2345 45.2866 82.787C41.4068 86.1784 37.5187 88.5846 34.0923 89.7948ZM19.6674 62.5418C14.7913 60.8752 10.7645 58.7091 8.00424 56.3455C5.52401 54.2214 4.27179 52.1127 4.27179 50.4016C4.27179 46.7602 9.70057 42.1157 18.7548 38.9589C19.8534 38.5759 21.0035 38.2149 22.197 37.8758C23.4483 41.9463 25.0898 46.202 27.0707 50.5055C25.0642 54.8729 23.3993 59.1965 22.1357 63.3147C21.2849 63.0701 20.4606 62.8127 19.6674 62.5418ZM24.5028 29.6281C22.6235 20.0236 23.8716 12.7783 27.0124 10.9603C30.3578 9.02346 37.7557 11.7849 45.5527 18.7082C46.0511 19.1507 46.5515 19.6138 47.0532 20.093C44.1478 23.2128 41.2768 26.7646 38.5344 30.635C33.8313 31.0709 29.3294 31.7712 25.1902 32.7089C24.93 31.662 24.6994 30.6336 24.5028 29.6281ZM67.6382 40.2793C66.6487 38.5702 65.6329 36.9014 64.5973 35.2783C67.7879 35.6816 70.8449 36.217 73.7157 36.8722C72.8538 39.6344 71.7796 42.5225 70.5151 45.4831C69.608 43.761 68.6486 42.0246 67.6382 40.2793ZM50.0477 23.1461C52.0181 25.2808 53.9914 27.6642 55.9323 30.2502C53.9765 30.1578 51.9964 30.1097 50 30.1097C48.0224 30.1097 46.057 30.1567 44.1132 30.2475C46.0561 27.6856 48.0465 25.3054 50.0477 23.1461ZM32.3445 40.3089C31.3561 42.0228 30.4145 43.7498 29.5216 45.4799C28.2776 42.5296 27.2133 39.6284 26.344 36.827C29.1971 36.1885 32.2396 35.6665 35.41 35.2708C34.3598 36.9089 33.3356 38.5903 32.3445 40.3089ZM35.5013 65.8371C32.2258 65.4716 29.1375 64.9764 26.2851 64.3556C27.1683 61.5042 28.256 58.5411 29.5264 55.5272C30.4216 57.2561 31.3669 58.9838 32.3614 60.7015C33.3744 62.4514 34.4241 64.1655 35.5013 65.8371ZM50.1659 77.9582C48.1412 75.7737 46.1216 73.3572 44.1492 70.7578C46.0639 70.833 48.016 70.8714 50 70.8714C52.0383 70.8714 54.0532 70.8255 56.0365 70.7372C54.0892 73.3833 52.123 75.8036 50.1659 77.9582ZM70.5558 55.3736C71.8924 58.42 73.0191 61.3677 73.9138 64.1705C71.0143 64.8319 67.8839 65.3647 64.5856 65.7605C65.6237 64.1155 66.6484 62.4181 67.6553 60.6721C68.674 58.9056 69.6413 57.1365 70.5558 55.3736ZM63.9549 58.5379C62.3917 61.2483 60.7869 63.8357 59.1577 66.278C56.1903 66.4901 53.1246 66.5994 50 66.5994C46.888 66.5994 43.861 66.5028 40.9461 66.3136C39.2512 63.8392 37.6115 61.2442 36.0583 58.5612C34.5091 55.8855 33.0837 53.1872 31.7918 50.5041C33.0834 47.8147 34.5054 45.1134 36.0456 42.4425L36.0453 42.4431C37.5896 39.7651 39.2149 37.1827 40.8941 34.7238C43.8681 34.499 46.9178 34.3817 49.9998 34.3817C53.0958 34.3817 56.1495 34.4999 59.1226 34.7266C60.7762 37.1675 62.3905 39.7416 63.9409 42.4199C65.5088 45.1283 66.9492 47.8117 68.2518 50.4434C66.9531 53.1203 65.516 55.8307 63.9549 58.5379ZM72.7675 10.8332C76.1161 12.7643 77.4184 20.5524 75.3144 30.7651C75.1802 31.4168 75.0291 32.0805 74.865 32.7532C70.7162 31.7959 66.211 31.0835 61.4943 30.641C58.7465 26.7281 55.8991 23.1708 53.0409 20.0911C53.8093 19.3518 54.5767 18.647 55.3409 17.9818C62.7235 11.5569 69.6236 9.02026 72.7675 10.8332ZM50 41.4719C54.9316 41.4719 58.9297 45.4698 58.9297 50.4016C58.9297 55.3332 54.9316 59.3312 50 59.3312C45.0684 59.3312 41.0703 55.3332 41.0703 50.4016C41.0703 45.4698 45.0684 41.4719 50 41.4719Z" fill="#00D8FF"/>
</svg>
