<svg width="100" height="100" viewBox="0 0 100 100" fill="none" xmlns="http://www.w3.org/2000/svg">
<path d="M33.6667 100C42.8667 100 50.3333 92.5333 50.3333 83.3333V66.6667H33.6667C24.4667 66.6667 17 74.1333 17 83.3333C17 92.5333 24.4667 100 33.6667 100Z" fill="#0ACF83"/>
<path d="M17 50C17 40.8 24.4667 33.3333 33.6667 33.3333H50.3333V66.6667H33.6667C24.4667 66.6667 17 59.2 17 50Z" fill="#A259FF"/>
<path d="M17 16.6667C17 7.46667 24.4667 0 33.6667 0H50.3333V33.3333H33.6667C24.4667 33.3333 17 25.8667 17 16.6667Z" fill="#F24E1E"/>
<path d="M50.3333 0H67C76.2 0 83.6667 7.46667 83.6667 16.6667C83.6667 25.8667 76.2 33.3333 67 33.3333H50.3333V0Z" fill="#FF7262"/>
<path d="M83.6667 50C83.6667 59.2 76.2 66.6667 67 66.6667C57.8 66.6667 50.3333 59.2 50.3333 50C50.3333 40.8 57.8 33.3333 67 33.3333C76.2 33.3333 83.6667 40.8 83.6667 50Z" fill="#1ABCFE"/>
</svg>
