<svg width="100" height="100" viewBox="0 0 100 100" fill="none" xmlns="http://www.w3.org/2000/svg">
<g clip-path="url(#clip0_2_269)">
<path d="M96.1464 10.4974L75.6223 0.615328C73.2468 -0.528517 70.4075 -0.0460175 68.5429 1.81842L1.35407 63.079C-0.453141 64.7269 -0.451063 67.572 1.35855 69.2171L6.84675 74.2062C8.32621 75.5514 10.5543 75.6502 12.1471 74.442L93.0581 13.0611C95.7725 11.0018 99.6713 12.9379 99.6713 16.345V16.1067C99.6713 13.7151 98.3013 11.5349 96.1464 10.4974Z" fill="#0065A9"/>
<path d="M96.1464 88.6L75.6223 98.4821C73.2468 99.6257 70.4075 99.1432 68.5429 97.279L1.35407 36.0184C-0.453141 34.3706 -0.451063 31.5254 1.35855 29.8803L6.84675 24.891C8.32621 23.546 10.5543 23.447 12.1471 24.6554L93.0581 86.0362C95.7725 88.0953 99.6713 86.1595 99.6713 82.7521V82.9907C99.6713 85.3821 98.3013 87.5623 96.1464 88.6Z" fill="#007ACC"/>
<path d="M75.5579 98.49C73.1817 99.6328 70.3424 99.15 68.4778 97.2854C70.7751 99.5826 74.7035 97.9554 74.7035 94.7064V4.4035C74.7035 1.15446 70.7751 -0.472677 68.4778 1.82475C70.3424 -0.0398597 73.1817 -0.52304 75.5579 0.619795L96.0786 10.4883C98.235 11.5253 99.6062 13.7062 99.6062 16.0989V83.0114C99.6062 85.404 98.235 87.585 96.0786 88.6219L75.5579 98.49Z" fill="#1F9CF0"/>
<path d="M70.6359 98.6739C72.2048 99.2848 73.9939 99.2459 75.5771 98.4841L96.0853 88.6156C98.2406 87.5786 99.611 85.3977 99.611 83.0051V16.0926C99.611 13.6999 98.2406 11.5189 96.0857 10.4819L75.5771 0.613487C73.4993 -0.386493 71.067 -0.141561 69.2429 1.18444C68.9826 1.37387 68.7343 1.58536 68.5013 1.81844L29.2408 37.6366L12.1397 24.6555C10.5478 23.447 8.32111 23.5461 6.84259 24.891L1.35773 29.8803C-0.450791 31.5254 -0.452865 34.3706 1.35325 36.0184L16.1839 49.5486L1.35325 63.079C-0.452865 64.7269 -0.450791 67.572 1.35773 69.2171L6.84259 74.2062C8.32111 75.5514 10.5478 75.6502 12.1397 74.442L29.2408 61.4607L68.5013 97.279C69.1223 97.9004 69.8519 98.3685 70.6359 98.6739ZM74.7234 26.9358L44.9336 49.5486L74.7234 72.1615V26.9358Z" fill="url(#paint0_linear_2_269)" fill-opacity="0.25"/>
</g>
<defs>
<linearGradient id="paint0_linear_2_269" x1="4980.55" y1="-3.8811e-05" x2="4980.55" y2="9909.73" gradientUnits="userSpaceOnUse">
<stop stop-color="white"/>
<stop offset="1" stop-color="white" stop-opacity="0"/>
</linearGradient>
<clipPath id="clip0_2_269">
<rect width="100" height="100" fill="white"/>
</clipPath>
</defs>
</svg>
