<svg width="100" height="100" viewBox="0 0 100 100" fill="none" xmlns="http://www.w3.org/2000/svg">
<g clip-path="url(#clip0_101_2)">
<path d="M86.4458 -2L100.089 5.97981L77.339 19.2104L77.3389 19.2262L100.089 5.97981V15.4623L69.5405 90.3724L50.0357 101.632L50.0357 101.634L50.0346 101.633L50.0336 101.634L50.0334 101.632L30.7167 90.4587L0 15.7559V5.97981L13.6451 -2L36.4122 11.3515L36.3343 11.3961L36.3949 11.4206V20.4367L50.0357 52.3387L50.0357 62.9969L50.0379 62.9957V52.3387L63.696 20.4367V11.3342H63.7133L86.4458 -2ZM27.9858 16.1992L22.752 19.2104L22.7518 19.2262L27.9858 16.1992Z" fill="#1159CC"/>
<path d="M86.4458 -2L63.7133 11.3342H63.696V20.4367L50.0379 52.3387V62.9957L40.9483 68.2811L22.752 27.242V19.2104L36.4122 11.3515L13.6451 -2L0 5.97981V15.7559L30.7167 90.4587L50.0357 101.634V73.5664L59.1426 68.2811L59.0217 68.212L77.339 27.242V19.2104L100.089 5.97981L86.4458 -2Z" fill="#127EFF"/>
</g>
<defs>
<clipPath id="clip0_101_2">
<rect width="100" height="100" fill="white"/>
</clipPath>
</defs>
</svg>
