<svg width="100" height="100" viewBox="0 0 100 100" fill="none" xmlns="http://www.w3.org/2000/svg">
<g clip-path="url(#clip0_2_263)">
<path d="M67.9758 64.8935H11.3825C5.09612 64.8935 0 69.9896 0 76.276C0 82.5623 5.09612 87.6585 11.3825 87.6585H67.9758C74.2622 87.6585 79.3583 82.5623 79.3583 76.276C79.3583 69.9896 74.2622 64.8935 67.9758 64.8935Z" fill="#EA4335"/>
<path d="M15.5851 52.2688L61.3701 85.5335C66.4559 89.2285 73.5742 88.1011 77.2692 83.0153C80.9642 77.9295 79.8368 70.8113 74.751 67.1162L28.9661 33.8515C23.8803 30.1565 16.762 31.2839 13.067 36.3697C9.37193 41.4555 10.4993 48.5737 15.5851 52.2688Z" fill="#FBBC04"/>
<path d="M79.0346 72.6493L61.5463 18.8259C59.6037 12.8472 53.1822 9.57524 47.2035 11.5178C41.2248 13.4604 37.9529 19.8819 39.8955 25.8606L57.3838 79.6841C59.3264 85.6628 65.7479 88.9347 71.7266 86.9921C77.7053 85.0495 80.9772 78.628 79.0346 72.6493Z" fill="#34A853"/>
<path d="M74.8319 18.8254L57.3436 72.6489C55.401 78.6276 58.6729 85.0491 64.6516 86.9917C70.6303 88.9343 77.0517 85.6623 78.9943 79.6836L96.4827 25.8602C98.4252 19.8815 95.1533 13.46 89.1746 11.5174C83.1959 9.5748 76.7745 12.8467 74.8319 18.8254Z" fill="#4285F4"/>
<path d="M50.7021 28.1036C53.8394 28.1036 56.3827 25.5603 56.3827 22.4229C56.3827 19.2856 53.8394 16.7423 50.7021 16.7423C47.5648 16.7423 45.0215 19.2856 45.0215 22.4229C45.0215 25.5603 47.5648 28.1036 50.7021 28.1036Z" fill="white"/>
<path d="M22.1076 48.5623C25.2449 48.5623 27.7882 46.019 27.7882 42.8817C27.7882 39.7443 25.2449 37.201 22.1076 37.201C18.9703 37.201 16.427 39.7443 16.427 42.8817C16.427 46.019 18.9703 48.5623 22.1076 48.5623Z" fill="white"/>
<path d="M11.4527 81.9992C14.59 81.9992 17.1333 79.4559 17.1333 76.3186C17.1333 73.1812 14.59 70.6379 11.4527 70.6379C8.31539 70.6379 5.77209 73.1812 5.77209 76.3186C5.77209 79.4559 8.31539 81.9992 11.4527 81.9992Z" fill="white"/>
<path d="M68.229 81.7949C71.3663 81.7949 73.9096 79.2516 73.9096 76.1143C73.9096 72.977 71.3663 70.4337 68.229 70.4337C65.0917 70.4337 62.5484 72.977 62.5484 76.1143C62.5484 79.2516 65.0917 81.7949 68.229 81.7949Z" fill="white"/>
<path d="M85.7708 27.8078C88.9081 27.8078 91.4514 25.2645 91.4514 22.1272C91.4514 18.9899 88.9081 16.4466 85.7708 16.4466C82.6335 16.4466 80.0902 18.9899 80.0902 22.1272C80.0902 25.2645 82.6335 27.8078 85.7708 27.8078Z" fill="white"/>
</g>
<defs>
<clipPath id="clip0_2_263">
<rect width="100" height="100" fill="white"/>
</clipPath>
</defs>
</svg>
