<svg width="100" height="100" viewBox="0 0 100 100" fill="none" xmlns="http://www.w3.org/2000/svg">
<path d="M97.9358 41.538C95.684 39.9755 90.5236 39.3896 86.4891 40.1708C86.02 36.2647 83.862 32.8469 80.109 29.8197L77.951 28.2572L76.4498 30.5032C74.5733 33.4328 73.635 37.5342 73.9165 41.4403C74.0103 42.8074 74.4795 45.2487 75.8868 47.3971C74.5733 48.1783 71.8523 49.1548 68.287 49.1548H0.451082L0.263431 49.9361C-0.393348 53.8422 -0.393348 66.0487 7.30035 75.4233C13.1175 82.5519 21.7495 86.1651 33.1024 86.1651C57.6847 86.1651 75.8868 74.3491 84.425 52.9633C87.8027 53.0609 95.0272 52.9633 98.6864 45.6394C98.7803 45.4441 98.9679 45.0534 99.6247 43.5887L100 42.8074L97.9358 41.538ZM54.6823 14H44.3614V23.7652H54.6823V14ZM54.6823 25.7183H44.3614V35.4835H54.6823V25.7183ZM42.4849 25.7183H32.1641V35.4835H42.4849V25.7183ZM30.2876 25.7183H19.9668V35.4835H30.2876V25.7183ZM18.0903 37.4366H7.76948V47.2018H18.0903V37.4366ZM30.2876 37.4366H19.9668V47.2018H30.2876V37.4366ZM42.4849 37.4366H32.1641V47.2018H42.4849V37.4366ZM54.6823 37.4366H44.3614V47.2018H54.6823V37.4366ZM66.8796 37.4366H56.5588V47.2018H66.8796V37.4366Z" fill="#2396ED"/>
</svg>
