<svg width="100" height="100" viewBox="0 0 100 100" fill="none" xmlns="http://www.w3.org/2000/svg">
<path d="M50 76.5781C77.6142 76.5781 100 64.8081 100 50.2891C100 35.77 77.6142 24 50 24C22.3858 24 0 35.77 0 50.2891C0 64.8081 22.3858 76.5781 50 76.5781Z" fill="url(#paint0_radial_2_266)"/>
<path d="M50 74.625C76.5356 74.625 98.0469 63.7294 98.0469 50.2891C98.0469 36.8487 76.5356 25.9531 50 25.9531C23.4644 25.9531 1.95312 36.8487 1.95312 50.2891C1.95312 63.7294 23.4644 74.625 50 74.625Z" fill="#6181B6"/>
<path d="M59.7266 58.1797L62.1094 45.9141C62.6563 43.1406 62.1875 41.0703 60.7813 39.7813C59.4141 38.5313 57.0703 37.9062 53.6328 37.9062H49.4922L50.6641 31.8125C50.7031 31.5781 50.6641 31.3437 50.5078 31.1484C50.3516 30.9531 50.1563 30.875 49.9219 30.875H44.2188C43.8281 30.875 43.5156 31.1484 43.4375 31.5L40.8984 44.5078C40.6641 43.0234 40.1172 41.7734 39.1797 40.7578C37.5 38.8438 34.8828 37.8672 31.3281 37.8672H20.3516C19.9609 37.8672 19.6484 38.1406 19.5703 38.4922L14.4531 64.8984C14.4141 65.1328 14.4531 65.3672 14.6094 65.5625C14.7656 65.7578 14.9609 65.8359 15.1953 65.8359H20.9375C21.3281 65.8359 21.6406 65.5625 21.7188 65.2109L22.9688 58.8437H27.2266C29.4531 58.8437 31.3672 58.6094 32.8125 58.1406C34.3359 57.6328 35.7031 56.8125 36.9141 55.6797C37.8906 54.7813 38.7109 53.7656 39.3359 52.6719L38.3203 57.9453C38.2813 58.1797 38.3203 58.4141 38.4766 58.6094C38.6328 58.8047 38.8281 58.8828 39.0625 58.8828H44.7656C45.1563 58.8828 45.4688 58.6094 45.5469 58.2578L48.3594 43.8047H52.2656C53.9453 43.8047 54.4141 44.1172 54.5703 44.2734C54.6875 44.3906 54.9219 44.8594 54.6484 46.3047L52.3828 57.9844C52.3438 58.2188 52.3828 58.4531 52.5391 58.6484C52.6953 58.8437 52.8906 58.9219 53.125 58.9219H58.9844C59.3359 58.8047 59.6484 58.5313 59.7266 58.1797ZM33.3203 48.0234C32.9688 49.8594 32.3047 51.1875 31.3281 51.9297C30.3516 52.6719 28.75 53.0625 26.6406 53.0625H24.1016L25.9375 43.6094H29.2188C31.6406 43.6094 32.6172 44.1172 33.0078 44.5469C33.5156 45.1719 33.6328 46.3828 33.3203 48.0234Z" fill="white"/>
<path d="M84.1016 40.7578C82.4219 38.8438 79.8047 37.8672 76.25 37.8672H65.1953C64.8047 37.8672 64.4922 38.1406 64.4141 38.4922L59.2969 64.8594C59.2578 65.0937 59.2969 65.3281 59.4531 65.5234C59.6094 65.7188 59.8047 65.7969 60.0391 65.7969H65.7813C66.1719 65.7969 66.4844 65.5234 66.5625 65.1719L67.8125 58.8047H72.0703C74.2969 58.8047 76.2109 58.5703 77.6563 58.1016C79.1797 57.5938 80.5469 56.7734 81.7578 55.6406C82.7734 54.7031 83.6328 53.6484 84.2578 52.5156C84.8828 51.3828 85.3516 50.1328 85.625 48.7656C86.2891 45.3672 85.7813 42.7109 84.1016 40.7578ZM78.125 48.0234C77.7734 49.8594 77.1094 51.1875 76.1328 51.9297C75.1563 52.6719 73.5547 53.0625 71.4453 53.0625H68.9063L70.7422 43.6094H74.0234C76.4453 43.6094 77.4219 44.1172 77.8125 44.5469C78.3594 45.1719 78.4766 46.3828 78.125 48.0234Z" fill="white"/>
<path d="M29.2188 42.8281C31.4063 42.8281 32.8516 43.2187 33.5938 44.0391C34.3359 44.8594 34.4922 46.2266 34.1016 48.1797C33.7109 50.2109 32.9297 51.6953 31.7969 52.5547C30.6641 53.4141 28.9453 53.8438 26.6406 53.8438H23.1641L25.3125 42.8281H29.2188ZM15.2344 65.0156H20.9766L22.3438 58.0234H27.2656C29.4531 58.0234 31.2109 57.7891 32.6172 57.3203C34.0234 56.8516 35.2734 56.1094 36.4453 55.0156C37.4219 54.1172 38.2031 53.1406 38.7891 52.0859C39.375 51.0313 39.8047 49.8594 40.0391 48.5703C40.6641 45.4453 40.1953 43.0234 38.6719 41.2656C37.1484 39.5078 34.7266 38.6484 31.4063 38.6484H20.3516L15.2344 65.0156Z" fill="#000004"/>
<path d="M44.2578 31.6562H49.9609L48.5938 38.6484H53.6719C56.875 38.6484 59.0625 39.1953 60.2734 40.3281C61.4844 41.4609 61.8359 43.2578 61.3672 45.7578L58.9844 58.0234H53.2031L55.4688 46.3437C55.7422 45.0156 55.625 44.1172 55.1953 43.6484C54.7656 43.1797 53.7891 42.9063 52.3438 42.9063H47.7734L44.8438 58.0234H39.1406L44.2578 31.6562Z" fill="#000004"/>
<path d="M74.0234 42.8281C76.2109 42.8281 77.6563 43.2187 78.3984 44.0391C79.1406 44.8594 79.2969 46.2266 78.9063 48.1797C78.5156 50.2109 77.7344 51.6953 76.6016 52.5547C75.4688 53.4141 73.75 53.8438 71.4453 53.8438H67.9688L70.1172 42.8281H74.0234ZM60.0391 65.0156H65.7812L67.1484 58.0234H72.0703C74.2578 58.0234 76.0156 57.7891 77.4219 57.3203C78.8281 56.8516 80.0781 56.1094 81.25 55.0156C82.2266 54.1172 83.0078 53.1406 83.5938 52.0859C84.1797 51.0313 84.6094 49.8594 84.8438 48.5703C85.4688 45.4453 85 43.0234 83.4766 41.2656C81.9531 39.5078 79.5313 38.6484 76.2109 38.6484H65.1563L60.0391 65.0156Z" fill="#000004"/>
<defs>
<radialGradient id="paint0_radial_2_266" cx="0" cy="0" r="1" gradientUnits="userSpaceOnUse" gradientTransform="translate(30.0202 33.2452) scale(65.6622 65.6622)">
<stop stop-color="white"/>
<stop offset="0.5" stop-color="#4C6B97"/>
<stop offset="1" stop-color="#231F20"/>
</radialGradient>
</defs>
</svg>
