<svg width="100" height="100" viewBox="0 0 100 100" fill="none" xmlns="http://www.w3.org/2000/svg">
<path d="M98.915 22.5832C98.951 22.7163 98.9697 22.8535 98.9697 22.9913V44.4186C98.9697 44.9784 98.6702 45.4955 98.1846 45.774L80.2003 56.1283V76.6514C80.2003 77.2099 79.9035 77.7255 79.4191 78.0067L41.8784 99.6176C41.7925 99.6664 41.6987 99.6977 41.605 99.7309C41.5698 99.7426 41.5366 99.7641 41.4995 99.7738C41.2371 99.8429 40.9613 99.8429 40.6988 99.7738C40.6559 99.7621 40.6168 99.7387 40.5758 99.7231C40.4899 99.6918 40.4 99.6645 40.318 99.6176L2.78507 78.0067C2.29976 77.7279 2 77.2111 2 76.6514V12.3695C2 12.2289 2.01953 12.0922 2.05468 11.9594C2.0664 11.9144 2.09374 11.8734 2.10936 11.8285C2.13866 11.7465 2.166 11.6625 2.20896 11.5864C2.23825 11.5356 2.28122 11.4946 2.31637 11.4477C2.36129 11.3852 2.4023 11.3208 2.45503 11.2661C2.49994 11.2212 2.55853 11.188 2.60931 11.1489C2.66594 11.102 2.71672 11.0513 2.78116 11.0141H2.78312L21.5506 0.20871C22.0342 -0.0695699 22.6293 -0.0695699 23.1129 0.20871L41.8803 11.0141H41.8842C41.9467 11.0532 41.9995 11.102 42.0561 11.1469C42.1069 11.186 42.1635 11.2212 42.2084 11.2641C42.2631 11.3208 42.3022 11.3852 42.349 11.4477C42.3822 11.4946 42.4272 11.5356 42.4545 11.5864C42.4994 11.6645 42.5248 11.7465 42.556 11.8285C42.5717 11.8734 42.599 11.9144 42.6107 11.9613C42.6467 12.0944 42.6651 12.2316 42.6654 12.3695V52.5193L58.3043 43.5144V22.9894C58.3043 22.8527 58.3238 22.714 58.359 22.5832C58.3726 22.5363 58.398 22.4953 58.4137 22.4504C58.4449 22.3684 58.4722 22.2844 58.5152 22.2082C58.5445 22.1574 58.5875 22.1164 58.6207 22.0696C58.6675 22.0071 58.7066 21.9426 58.7613 21.8879C58.8062 21.843 58.8628 21.8098 58.9136 21.7708C58.9722 21.7239 59.023 21.6731 59.0855 21.636H59.0874L77.8568 10.8306C78.3403 10.5519 78.9356 10.5519 79.4191 10.8306L98.1866 21.636C98.253 21.6751 98.3038 21.7239 98.3623 21.7688C98.4112 21.8079 98.4678 21.843 98.5127 21.886C98.5674 21.9426 98.6065 22.0071 98.6533 22.0696C98.6885 22.1164 98.7314 22.1574 98.7588 22.2082C98.8037 22.2844 98.8291 22.3684 98.8603 22.4504C98.8779 22.4953 98.9033 22.5363 98.915 22.5832ZM95.8411 43.5144V25.6961L89.2735 29.4769L80.2003 34.701V52.5193L95.8431 43.5144H95.8411ZM77.0737 75.7472V57.9171L68.1489 63.0142L42.6635 77.5595V95.5575L77.0737 75.7472ZM5.12856 15.0742V75.7472L39.5349 95.5555V77.5614L21.5603 67.3887L21.5545 67.3848L21.5467 67.3809C21.4861 67.3458 21.4353 67.295 21.3787 67.252C21.3299 67.213 21.2733 67.1817 21.2303 67.1388L21.2264 67.1329C21.1756 67.0841 21.1405 67.0236 21.0975 66.9689C21.0584 66.9161 21.0116 66.8712 20.9803 66.8165L20.9784 66.8107C20.9432 66.7521 20.9217 66.6818 20.8963 66.6154C20.871 66.5568 20.8378 66.5021 20.8221 66.4396V66.4377C20.8026 66.3635 20.7987 66.2854 20.7909 66.2092C20.7831 66.1506 20.7674 66.092 20.7674 66.0334V66.0295V24.0791L11.6962 18.8531L5.12856 15.0762V15.0742ZM22.3337 3.36851L6.69674 12.3695L22.3298 21.3704L37.9648 12.3675L22.3298 3.36851H22.3337ZM30.4656 59.542L39.5368 54.3199V15.0742L32.9692 18.8551L23.896 24.0791V63.3247L30.4656 59.542ZM78.638 13.9904L63.003 22.9913L78.638 31.9923L94.271 22.9894L78.638 13.9904ZM77.0737 34.701L68.0005 29.4769L61.4328 25.6961V43.5144L70.5041 48.7365L77.0737 52.5193V34.701ZM41.0972 74.8547L64.0302 61.7624L75.4938 55.2202L59.8705 46.2251L41.8823 56.5814L25.4876 66.0198L41.0972 74.8547Z" fill="#FF2D20"/>
</svg>
