<svg width="300" height="300" viewBox="0 0 300 300" fill="none" xmlns="http://www.w3.org/2000/svg">
<path fill-rule="evenodd" clip-rule="evenodd" d="M73.4217 45.0228L55.3333 26.9344V134.111C55.3333 138.468 51.8014 142 47.4444 142C43.0875 142 39.5556 138.468 39.5556 134.111V26.9344L21.4672 45.0228C18.3864 48.1036 13.3914 48.1036 10.3106 45.0228C7.2298 41.9419 7.2298 36.947 10.3106 33.8662L41.8662 2.31061C44.947 -0.770194 49.9419 -0.770194 53.0227 2.31061L84.5783 33.8662C87.6591 36.947 87.6591 41.9419 84.5783 45.0228C81.4975 48.1036 76.5025 48.1036 73.4217 45.0228Z" fill="white"/>
<path fill-rule="evenodd" clip-rule="evenodd" d="M150 118.333V55.2222C150 42.1515 160.596 31.5556 173.667 31.5556C186.737 31.5556 197.333 42.1515 197.333 55.2222V96.0133C199.801 95.1412 202.456 94.6667 205.222 94.6667C216.136 94.6667 225.325 102.054 228.06 112.102C230.758 111.032 233.699 110.444 236.778 110.444C247.692 110.444 256.88 117.832 259.616 127.88C262.313 126.81 265.255 126.222 268.333 126.222C281.404 126.222 292 136.818 292 149.889V213C292 260.926 253.148 299.778 205.222 299.778C182.886 299.778 161.709 289.831 147.448 272.639L77.8129 188.7C70.7344 180.167 69.2783 168.291 74.0858 158.301L74.649 157.131C79.1002 147.881 88.4573 142 98.7223 142C108.214 142 117.405 145.328 124.697 151.404L139.273 163.551C142.048 165.863 146.172 165.488 148.484 162.713C149.464 161.538 150 160.056 150 158.526V118.333ZM165.778 158.526V118.333V55.2222C165.778 50.8653 169.31 47.3333 173.667 47.3333C178.024 47.3333 181.556 50.8653 181.556 55.2222V165.667C181.556 170.024 185.088 173.556 189.444 173.556C193.801 173.556 197.333 170.024 197.333 165.667V118.333C197.333 113.976 200.865 110.444 205.222 110.444C209.579 110.444 213.111 113.976 213.111 118.333V165.667C213.111 170.024 216.643 173.556 221 173.556C225.357 173.556 228.889 170.024 228.889 165.667V134.111C228.889 129.754 232.421 126.222 236.778 126.222C241.135 126.222 244.667 129.754 244.667 134.111V165.667C244.667 170.024 248.199 173.556 252.556 173.556C256.913 173.556 260.444 170.024 260.444 165.667V149.889C260.444 145.532 263.976 142 268.333 142C272.69 142 276.222 145.532 276.222 149.889V213C276.222 252.212 244.434 284 205.222 284C187.58 284 170.855 276.143 159.591 262.566L89.9561 178.626C86.8165 174.841 86.1707 169.574 88.303 165.143L88.8662 163.973C90.6886 160.186 94.5196 157.778 98.7223 157.778C104.523 157.778 110.14 159.811 114.596 163.525L129.172 175.672C138.641 183.562 152.714 182.283 160.605 172.814C163.947 168.803 165.778 163.747 165.778 158.526Z" fill="white"/>
</svg>
