<svg width="100" height="100" viewBox="0 0 100 100" fill="none" xmlns="http://www.w3.org/2000/svg">
<path d="M32.35 65.55C37.4167 65.55 39.95 63.8167 39.95 60.35C39.95 59.2833 39.7167 58.3833 39.25 57.65C38.8167 56.8833 38.2167 56.2333 37.45 55.7C36.6834 55.1333 35.8 54.65 34.8 54.25C33.8334 53.85 32.8 53.45 31.7 53.05C30.4334 52.6167 29.2334 52.1333 28.1 51.6C26.9667 51.0333 25.9834 50.3833 25.15 49.65C24.3167 48.8833 23.65 47.9833 23.15 46.95C22.6834 45.9167 22.45 44.6667 22.45 43.2C22.45 40.1667 23.4834 37.8 25.55 36.1C27.6167 34.4 30.4667 33.55 34.1 33.55C36.2 33.55 38.1 33.7833 39.8 34.25C41.5334 34.6833 42.8 35.1667 43.6 35.7L42.05 39.65C41.35 39.2167 40.3 38.8 38.9 38.4C37.5334 37.9667 35.9334 37.75 34.1 37.75C33.1667 37.75 32.3 37.85 31.5 38.05C30.7 38.25 30 38.55 29.4 38.95C28.8 39.35 28.3167 39.8667 27.95 40.5C27.6167 41.1 27.45 41.8167 27.45 42.65C27.45 43.5833 27.6334 44.3667 28 45C28.3667 45.6333 28.8834 46.2 29.55 46.7C30.2167 47.1667 30.9834 47.6 31.85 48C32.75 48.4 33.7334 48.8 34.8 49.2C36.3 49.8 37.6667 50.4 38.9 51C40.1667 51.6 41.25 52.3167 42.15 53.15C43.0834 53.9833 43.8 54.9833 44.3 56.15C44.8 57.2833 45.05 58.6667 45.05 60.3C45.05 63.3333 43.9334 65.6667 41.7 67.3C39.5 68.9333 36.3834 69.75 32.35 69.75C30.9834 69.75 29.7167 69.65 28.55 69.45C27.4167 69.2833 26.4 69.0833 25.5 68.85C24.6 68.5833 23.8167 68.3167 23.15 68.05C22.5167 67.75 22.0167 67.5 21.65 67.3L23.1 63.3C23.8667 63.7333 25.0334 64.2167 26.6 64.75C28.1667 65.2833 30.0834 65.55 32.35 65.55Z" fill="#333333"/>
<path d="M76.3114 68.25C75.2447 68.5167 73.828 68.8 72.0614 69.1C70.328 69.4 68.3114 69.55 66.0114 69.55C64.0114 69.55 62.328 69.2667 60.9613 68.7C59.5947 68.1 58.4947 67.2667 57.6614 66.2C56.828 65.1333 56.228 63.8833 55.8614 62.45C55.4947 60.9833 55.3114 59.3667 55.3114 57.6V43H59.9614V56.6C59.9614 59.7667 60.4614 62.0333 61.4614 63.4C62.4614 64.7667 64.1447 65.45 66.5114 65.45C67.0114 65.45 67.528 65.4333 68.0614 65.4C68.5947 65.3667 69.0947 65.3333 69.5614 65.3C70.028 65.2333 70.4447 65.1833 70.8114 65.15C71.2114 65.0833 71.4947 65.0167 71.6614 64.95V43H76.3114V68.25Z" fill="#333333"/>
<rect x="1.5" y="1.5" width="97" height="97" stroke="#333333" stroke-width="3"/>
</svg>
